<svg fill="none" height="155" viewBox="0 0 142 155" width="142" xmlns="http://www.w3.org/2000/svg" xmlns:xlink="http://www.w3.org/1999/xlink"><clipPath id="a"><path d="m0 0h141.42v154.59h-141.42z"/></clipPath><g clip-path="url(#a)"><path d="m115.21 56.7c-.35.4-.34-.03-.99.14-.29.08-.59.3-.97.45-.3.12-.69.13-1.03.31-.29.15-.62.32-.94.52-.28.17-.37.68-.67.9-.27.2-.59.34-.88.58-.26.22-.65.3-.92.56-.25.23-.39.59-.64.85-.23.25-.59.41-.82.69-.22.26-.21.72-.43 1.01-.21.27-.62.41-.82.71-.19.28-.18.71-.37 1.02s-.59.46-.77.77c-.17.3-.33.62-.5.94s-.17.7-.32 1.03-.38.59-.53.93c-.13.29-.46.55-.57.9-.1.31.17.74.09 1.09-.07.32-.19.64-.25.99-.06.33.01.68-.03 1.03s-.49.64-.51.99.28.7.27 1.05-.22.68-.22 1.03.11.68.12 1.03.21.67.23 1.02-.21.7-.18 1.05.13.68.17 1.02-.1.71-.05 1.05.23.66.29 1.01c-.09.34-.07.71-.16 1.05s-.53.59-.62.93.22.79.14 1.13-.42.62-.51.96-.14.7-.22 1.04-.05.72-.14 1.06-.34.65-.43.99-.24.67-.33 1.01.11.76.02 1.1-.12.7-.2 1.04-.35.65-.43.99-.15.69-.24 1.03.06.75-.02 1.08-.3.66-.38 1c-.0801.34-.15.7-.23 1.03-.09.35-.24.68-.32 1.01-.09.36-.1.71-.18 1.05-.09.36-.12.71-.2 1.04-.09.36-.36.66-.44.98-.09.37-.31.68-.38.99-.09.4-.12.76-.18 1.05-.1501.66.2099.6-.25.85-.46.25-.46.12-.98.24s-.45.4-.97.53-.6-.2-1.11-.08-.45.42-.97.55-.55-.02-1.07.11-.52.14-1.04.26-.54.03-1.06.15-.43.49-.95.62-.56-.05-1.08.08-.49.26-1.01.39-.62-.3-1.14-.17-.44.45-.96.57-.49.23-1.01.35-.61-.25-1.13-.13-.53.08-1.05.2-.46.38-.98.5-.58-.13-1.1 0-.45.41-.97.53-.51.17-1.03.29-.53.08-1.05.2-.52.11-1.05.24-.58-.13-1.1 0-.49.24-1.02.36-.5.18-1.02.31-.54.04-1.06.17-.45.41-.98.53-.55.02-1.07.15-.53.36-1.07.3.05-.48-.04-1.14c-.04-.29.03-.65-.03-1.04-.04-.31-.31-.62-.36-.99-.04-.32-.06-.67-.11-1.03-.04-.33-.31-.64-.36-1-.04-.33.35-.73.3-1.09-.04-.33-.3-.65-.35-1s-.02-.69-.07-1.04-.03-.69-.07-1.04-.06-.68-.11-1.03-.02-.69-.06-1.03-.24-.66-.28-1.01.07-.7.03-1.05-.35-.65-.39-1-.03-.69-.07-1.04-.19-.77-.22-1.12c.41 0 .87.1 1.2-.02.36-.13.71-.32.99-.56s.55-.52.78-.82.13-.8.33-1.12.56-.53.75-.84.36-.67.58-.96c.23-.31.67-.55.69-.85.02-.34-.39-.65-.55-.95s-.47-.42-.71-.67c-.24-.26-.39-.57-.64-.74-.44-.3-.91-.6-.98-.53.19-.47.52-.33.72-.8.17-.39-.04-.83-.06-.99-.04-.39.05-.85-.27-1.02-.27-.14-.73-.04-1.1-.09-.34-.05-.7-.03-1.05-.05-.38-.02-.76.03-1.06-.02-.47-.07-.97-.32-.97-.64s.11-.69.14-1.07c.02-.33.17-.67.21-1.04.04-.34.1-.68.15-1.04.05-.34.08-.69.13-1.05.06-.34.34-.65.41-1s-.03-.71.04-1.07.03-.71.11-1.06-.08-.73 0-1.08.22-.67.3-1.02.25-.67.33-1.01.14-.69.22-1.04.52-.6.6-.95-.17-.77-.09-1.12.12-.7.21-1.04.29-.66.38-1 .29-.66.38-1-.06-.75.04-1.09.51-.6.61-.93.22-.68.31-1.02.11-.72.2-1.05c.1-.35.17-.7.26-1.03.1-.35.05-.74.14-1.06.11-.36.35-.66.44-.98.11-.37.39-.65.48-.96.12-.39.11-.77.2-1.05.2-.64.04-.49.39-.88.33-.37.25-.41.63-.73s.44-.25.82-.57.34-.37.72-.69.35-.36.73-.68.23-.56.67-.8c.46-.25-.12.5-.43 1.06-.15.27-.13.67-.3 1.02-.15.3-.75.42-.89.75-.13.32-.23.68-.34 1.02s.1.77.02 1.11-.37.68-.39 1.02c-.02.37.03.75.1 1.09.08.35.26.7.46.99.21.31.52.54.77.79s.51.55.81.74.57.53.92.67.81-.18 1.17-.1c.34.07.65.44 1.03.47.35.03.73-.3 1.1-.3.35 0 .72.28 1.1.25.35-.03.7-.23 1.07-.28.35-.04.69-.22 1.06-.28.31-.05.71.2 1.08.12.32-.07.6-.4.96-.49.32-.08.74.14 1.09.05.33-.09.68-.11 1.03-.21s.53-.64.87-.74.77.17 1.11.06.67-.18 1-.3.54-.56.87-.68.73-.02 1.06-.15.71-.13 1.03-.26.6-.39.92-.52.67-.23.98-.37.61-.37.91-.52c.32-.17.46-.63.75-.8.31-.18.79-.06 1.07-.25.31-.2.67-.33.92-.53.29-.24.51-.53.72-.77.37-.36.42-.3.8-.65s.37-.37.75-.71.19-.56.57-.91.43-.29.82-.64.5-.22.89-.56.44-.28.83-.63.32-.42.7-.76.11-.65.5-1 .56-.16.94-.51.37-.36.76-.72.36-.37.81-.63.35.08 1 .21c.3.06.62.19 1.01.31.32.1.79-.14 1.14.01.31.13.44.68.76.87.3.17.77.09 1.07.31.28.21.35.66.62.92.25.24.76.26.99.54.22.27.26.68.45 1 .18.3.51.53.66.87.14.31-.09.77.03 1.13.11.33.57.57.65.94.07.34-.07.65-.02 1.02z" fill="#eacbca"/><path d="m115.21 56.7c-.35.4-.34-.03-.99.14-.29.08-.59.3-.97.45-.3.12-.69.13-1.03.31-.29.15-.62.32-.94.52-.28.17-.37.68-.67.9-.27.2-.59.34-.88.58-.26.22-.65.3-.92.56-.25.23-.39.59-.64.85-.23.25-.59.41-.82.69-.22.26-.21.72-.43 1.01-.21.27-.62.41-.82.71-.19.28-.18.71-.37 1.02s-.59.46-.77.77c-.17.3-.33.62-.5.94s-.17.7-.32 1.03-.38.59-.53.93c-.13.29-.46.55-.57.9-.1.31.17.74.09 1.09-.07.32-.19.64-.25.99-.06.33.01.68-.03 1.03s-.49.64-.51.99.28.7.27 1.05-.22.68-.22 1.03.11.68.12 1.03.21.67.23 1.02-.21.7-.18 1.05.13.68.17 1.02-.1.71-.05 1.05.23.66.29 1.01c-.09.34-.07.71-.16 1.05s-.53.59-.62.93.22.79.14 1.13-.42.62-.51.96-.14.7-.22 1.04-.05.72-.14 1.06-.34.65-.43.99-.24.67-.33 1.01.11.76.02 1.1-.12.7-.2 1.04-.35.65-.43.99-.15.69-.24 1.03.06.75-.02 1.08-.3.66-.38 1-.15.7-.23 1.03c-.09.35-.24.68-.32 1.01-.09.36-.1.71-.18 1.05-.09.36-.12.71-.2 1.04-.09.36-.36.66-.44.98-.09.37-.31.68-.38.99-.09.4-.12.76-.18 1.05-.15.66.21.6-.25.85s-.46.12-.98.24-.45.4-.97.53-.6-.2-1.11-.08-.45.42-.97.55-.55-.02-1.07.11-.52.14-1.04.26-.54.03-1.06.15-.43.49-.95.62-.56-.05-1.08.08-.49.26-1.01.39-.62-.3-1.14-.17-.44.45-.96.57-.49.23-1.01.35-.61-.25-1.13-.13-.53.08-1.05.2-.46.38-.98.5-.58-.13-1.1 0-.45.41-.97.53-.51.17-1.03.29-.53.08-1.05.2-.52.11-1.05.24-.58-.13-1.1 0-.49.24-1.02.36-.5.18-1.02.31-.54.04-1.06.17-.45.41-.98.53-.55.02-1.07.15-.53.36-1.07.3.05-.48-.04-1.14c-.04-.29.03-.65-.03-1.04-.04-.31-.31-.62-.36-.99-.04-.32-.06-.67-.11-1.03-.04-.33-.31-.64-.36-1-.04-.33.35-.73.3-1.09-.04-.33-.3-.65-.35-1s-.02-.69-.07-1.04-.03-.69-.07-1.04-.06-.68-.11-1.03-.02-.69-.06-1.03-.24-.66-.28-1.01.07-.7.03-1.05-.35-.65-.39-1-.03-.69-.07-1.04-.19-.77-.22-1.12c.41 0 .87.1 1.2-.02.36-.13.71-.32.99-.56s.55-.52.78-.82.13-.8.33-1.12.56-.53.75-.84.36-.67.58-.96c.23-.31.67-.55.69-.85.02-.34-.39-.65-.55-.95s-.47-.42-.71-.67c-.24-.26-.39-.57-.64-.74-.44-.3-.91-.6-.98-.53.19-.47.52-.33.72-.8.17-.39-.04-.83-.06-.99-.04-.39.05-.85-.27-1.02-.27-.14-.73-.04-1.1-.09-.34-.05-.7-.03-1.05-.05-.38-.02-.76.03-1.06-.02-.47-.07-.97-.32-.97-.64s.11-.69.14-1.07c.02-.33.17-.67.21-1.04.04-.34.1-.68.15-1.04.05-.34.08-.69.13-1.05.06-.34.34-.65.41-1s-.03-.71.04-1.07.03-.71.11-1.06-.08-.73 0-1.08.22-.67.3-1.02.25-.67.33-1.01.14-.69.22-1.04.52-.6.6-.95-.17-.77-.09-1.12.12-.7.21-1.04.29-.66.38-1 .29-.66.38-1-.06-.75.04-1.09.51-.6.61-.93.22-.68.31-1.02.11-.72.2-1.05c.1-.35.17-.7.26-1.03.1-.35.05-.74.14-1.06.11-.36.35-.66.44-.98.11-.37.39-.65.48-.96.12-.39.11-.77.2-1.05.2-.64.04-.49.39-.88.33-.37.25-.41.63-.73s.44-.25.82-.57.34-.37.72-.69.35-.36.73-.68.23-.56.67-.8c.46-.25-.12.5-.43 1.06-.15.27-.13.67-.3 1.02-.15.3-.75.42-.89.75-.13.32-.23.68-.34 1.02s.1.77.02 1.11-.37.68-.39 1.02c-.02.37.03.75.1 1.09.08.35.26.7.46.99.21.31.52.54.77.79s.51.55.81.74.57.53.92.67.81-.18 1.17-.1c.34.07.65.44 1.03.47.35.03.73-.3 1.1-.3.35 0 .72.28 1.1.25.35-.03.7-.23 1.07-.28.35-.04.69-.22 1.06-.28.31-.05.71.2 1.08.12.32-.07.6-.4.96-.49.32-.08.74.14 1.09.05.33-.09.68-.11 1.03-.21s.53-.64.87-.74.77.17 1.11.06.67-.18 1-.3.54-.56.87-.68.73-.02 1.06-.15.71-.13 1.03-.26.6-.39.92-.52.67-.23.98-.37.61-.37.91-.52c.32-.17.46-.63.75-.8.31-.18.79-.06 1.07-.25.31-.2.67-.33.92-.53.29-.24.51-.53.72-.77.37-.36.42-.3.8-.65s.37-.37.75-.71.19-.56.57-.91.43-.29.82-.64.5-.22.89-.56.44-.28.83-.63.32-.42.7-.76.11-.65.5-1 .56-.16.94-.51.37-.36.76-.72.36-.37.81-.63.35.08 1 .21c.3.06.62.19 1.01.31.32.1.79-.14 1.14.01.31.13.44.68.76.87.3.17.77.09 1.07.31.28.21.35.66.62.92.25.24.76.26.99.54.22.27.26.68.45 1 .18.3.51.53.66.87.14.31-.09.77.03 1.13.11.33.57.57.65.94.07.34-.07.65-.02 1.02z" stroke="#4f3b17" stroke-linecap="round" stroke-linejoin="round" stroke-width=".94"/><path d="m60.95 40.58c.43-.28.23-.49.71-.8.28-.17.6-.35.9-.53.35-.22.66-.43.87-.56.26-.15.5499.27.6299.85.04.33.2201.75.1901 1.15s-.31.76-.42 1.09c-.13.4-.2801.85-.5501 1.04" stroke="#4f3b17" stroke-linecap="round" stroke-linejoin="round" stroke-width=".88"/><path d="m63.3 44.72c.24.43-.0199.49.3101.96.17.24.3799.51.5999.79.2.26.4.54.63.77.25.25.48.55.73.71.32.19.74.18 1.03.12.23-.05.6-.17 1-.4.28-.15.5401-.42.8701-.62.29-.18.67-.26.97-.46s.5799-.4.8799-.61.39-.69.68-.89c.3-.22.7101-.26.9801-.46.32-.23.68-.35.93-.54.52-.39.1799-.74.6499-.5s.33.32.71.71.5401.24.9201.64.4.38.78.78.48.3.86.7.0999.66.4799 1.06" stroke="#4f3b17" stroke-linecap="round" stroke-linejoin="round" stroke-width=".99"/><path d="m72.46 35.55c-.35.28.08.24.46-.33.16-.23.47-.45.66-.77.16-.27.09-.7.22-1.01s.41-.57.49-.89.28-.69.27-1.02-.32-.66-.44-.97c-.12-.29-.45-.41-.7-.67-.21-.22-.39-.42-.72-.61-.26-.15-.4-.65-.75-.77-.37-.13-.72-.18-1.02-.32-.35-.18-.79-.16-1.06-.35-.32-.23-.46-.62-.69-.87-.26-.28-.56-.49-.76-.78-.21-.3-.26-.71-.46-1s-.46-.57-.71-.84c-.23-.25-.66-.3-.98-.52-.28-.19-.65-.3-.99-.49s-.57-.55-.87-.71c-.56-.29-.61-.1-.94-.55-.34-.47-.1-.46-.19-1.14-.05-.35-.08-.75-.13-1.16-.04-.38-.36-.76-.39-1.14-.03-.33.09-.66.08-.94-.02-.35-.03-.66-.07-.92-.07-.45-.09-.6-.34-.61-.31 0-.59 0-.8.35-.14.23-.1.57-.17.96-.05.28-.33.58-.35.95-.01.3.35.62.37.98.02.31-.03.63.01.98.04.31-.29.69-.24 1.04.05.31.26.58.33.92-.32.05-.65 0-1.02.07-.33.06-.62.43-.98.5-.34.06-.78.07-1.13.14-.09-.32-.22-.72-.3-1.03-.08-.33.03-.7-.04-1-.08-.34-.21-.65-.27-.95-.08-.36-.13-.69-.18-.97-.11-.6.08-.52-.29-.84-.28-.25-.41-.3-.64-.23-.2.06-.55.41-.65.96-.05.3.37.7.37 1.12 0 .34-.22.7-.17 1.1.04.34-.05.74.02 1.12.07.35.22.65.32 1.02-.37.09-.73-.01-1.06.08-.37.1-.61.57-.93.68-.37.12-.82-.05-1.13.08-.36.16-.61.49-.87.68-.07.05-.33-.31-.42-.9-.04-.29.02-.64-.02-1-.04-.32.05-.66.01-1s-.17-.66-.2-.98c-.03-.36.19-.72.16-1.01-.05-.58-.45-.46-.49-.95-.03-.34-.05-.71-.04-1.05s.43-.66.47-.99.09-.67.16-1-.15-.75-.05-1.08c.1-.34.51-.57.62-.88.12-.34.29-.64.41-.94.14-.35.18-.7.3-.98.14-.31.31-.6.5-.91.18-.29.39-.56.61-.85.21-.27.22-.73.47-.99.23-.25.46-.54.73-.79.25-.23.73-.23 1.01-.46s.44-.56.73-.78.52-.48.82-.68.68-.24.98-.43.57-.41.88-.58.55-.46.87-.62.58-.43.9-.58.72-.12 1.05-.26.65-.26.98-.39.59-.42.93-.55.67-.22 1.01-.34.75.02 1.09-.09.7-.11 1.04-.21.64-.3.99-.39.71-.04 1.06-.13.6-.53.95-.6.72-.02 1.07-.09.74.11 1.09.05.66-.36 1.01-.41c.35-.050003.67-.310003 1.01-.340003.35-.04.72.16 1.06.15.36-.02.7.250003 1.04.250003.36 0 .72-.480003 1.05-.460003.36.02.71.13 1.04.17.35.04.68.250003 1 .320003.35.07.73 0 1.05.08.35.1.65.31.96.43.34.13.58.44.87.58.32.16.7.19.97.37.31.2.5.52.75.72.29.23.7.29.92.52.28.28.5.57.68.8.38.51.35 1.06.35 1.06.43.31.52-.02 1.02.42.22.2.53.42.81.7.23.23.35.61.59.9.22.25.6.41.82.71.2.27.24.69.44 1 .19.29.19.69.36 1.01s.27.63.42.96.41.58.53.92.11.69.2 1.04c.08.32.29.62.35.97.06.33.35.63.4.98.05.33.19.67.22 1.02s-.16.7-.14 1.05-.02.68-.01 1.03.18.68.18 1.03.09.69.07 1.04-.55.65-.58.99-.04.68-.08 1.02-.08.67-.13 1.01-.02.69-.08 1.03-.23.65-.31.98.27.78.18 1.11-.52.57-.62.89-.24.64-.36.96-.13.68-.27 1-.34.6-.49.91-.31.61-.47.91-.14.71-.32 1.01-.45.6-.65.88c-.53.14-.4-.4-1.1-.43-.31-.01-.68.2-1.11.24-.33.03-.67.18-1.06.27-.33.07-.64.28-1.01.41-.33.11-.69.15-1.04.31-.32.14-.64.31-.98.49s-.74.13-1.04.2c-.36.08-.69.09-1.01.04-.35-.05-.71-.08-1-.24-.31-.17-.5-.49-.74-.72-.27-.26-.62-.42-.8-.67-.35-.48-.47-.41-.43-.92.04-.56 0-.49.3-1.1.15-.3.68-.48.83-.86.13-.33-.09-.81.02-1.19.1-.36.55-.65.61-1.02s-.02-.78-.02-1.16-.26-.76-.27-1.11c-.01-.4.08-.77.03-1.11-.06-.4-.11-.76-.26-1.07-.17-.34-.39-.6-.73-.8-.28-.17-.6-.38-1.03-.43-.32-.04-.71-.16-1.14-.14-.4.02-.75.27-1.06.4-.35.15-.45.57-.69.82s-.41.51-.58.83-.37.6-.47.94c-.11.38-.32.71-.37 1.03-.09.63-.49.68-.2 1.14s.55.06 1.05.43c.25.19.5.48.76.76.23.25.6.47.78.79.17.3-.06.77.01 1.13.07.33.1.62.05 1-.04.32-.18.59-.33.95-.13.3.06.79-.16 1.11-.18.27-.56.44-.82.73-.22.25-.6.35-.88.61-.24.23-.49.46-.79.7z" fill="#4f3b17"/><path d="m72.46 35.55c-.35.28.08.24.46-.33.16-.23.47-.45.66-.77.16-.27.09-.7.22-1.01s.41-.57.49-.89.28-.69.27-1.02-.32-.66-.44-.97c-.12-.29-.45-.41-.7-.67-.21-.22-.39-.42-.72-.61-.26-.15-.4-.65-.75-.77-.37-.13-.72-.18-1.02-.32-.35-.18-.79-.16-1.06-.35-.32-.23-.46-.62-.69-.87-.26-.28-.56-.49-.76-.78-.21-.3-.26-.71-.46-1s-.46-.57-.71-.84c-.23-.25-.66-.3-.98-.52-.28-.19-.65-.3-.99-.49s-.57-.55-.87-.71c-.56-.29-.61-.1-.94-.55-.34-.47-.1-.46-.19-1.14-.05-.35-.08-.75-.13-1.16-.04-.38-.36-.76-.39-1.14-.03-.33.09-.66.08-.94-.02-.35-.03-.66-.07-.92-.07-.45-.09-.6-.34-.61-.31 0-.59 0-.8.35-.14.23-.1.57-.17.96-.05.28-.33.58-.35.95-.01.3.35.62.37.98.02.31-.03.63.01.98.04.31-.29.69-.24 1.04.05.31.26.58.33.92-.32.05-.65 0-1.02.07-.33.06-.62.43-.98.5-.34.06-.78.07-1.13.14-.09-.32-.22-.72-.3-1.03-.08-.33.03-.7-.04-1-.08-.34-.21-.65-.27-.95-.08-.36-.13-.69-.18-.97-.11-.6.08-.52-.29-.84-.28-.25-.41-.3-.64-.23-.2.06-.55.41-.65.96-.05.3.37.7.37 1.12 0 .34-.22.7-.17 1.1.04.34-.05.74.02 1.12.07.35.22.65.32 1.02-.37.09-.73-.01-1.06.08-.37.1-.61.57-.93.68-.37.12-.82-.05-1.13.08-.36.16-.61.49-.87.68-.07.05-.33-.31-.42-.9-.04-.29.02-.64-.02-1-.04-.32.05-.66.01-1s-.17-.66-.2-.98c-.03-.36.19-.72.16-1.01-.05-.58-.45-.46-.49-.95-.03-.34-.05-.71-.04-1.05s.43-.66.47-.99.09-.67.16-1-.15-.75-.05-1.08c.1-.34.51-.57.62-.88.12-.34.29-.64.41-.94.14-.35.18-.7.3-.98.14-.31.31-.6.5-.91.18-.29.39-.56.61-.85.21-.27.22-.73.47-.99.23-.25.46-.54.73-.79.25-.23.73-.23 1.01-.46s.44-.56.73-.78.52-.48.82-.68.68-.24.98-.43.57-.41.88-.58.55-.46.87-.62.58-.43.9-.58.72-.12 1.05-.26.65-.26.98-.39.59-.42.93-.55.67-.22 1.01-.34.75.02 1.09-.09.7-.11 1.04-.21.64-.3.99-.39.71-.04 1.06-.13.6-.53.95-.6.72-.02 1.07-.09.74.11 1.09.05.66-.36 1.01-.41c.35-.050003.67-.310003 1.01-.340003.35-.04.72.16 1.06.15.36-.02.7.250003 1.04.250003.36 0 .72-.480003 1.05-.460003.36.02.71.13 1.04.17.35.04.68.250003 1 .320003.35.07.73 0 1.05.08.35.1.65.31.96.43.34.13.58.44.87.58.32.16.7.19.97.37.31.2.5.52.75.72.29.23.7.29.92.52.28.28.5.57.68.8.38.51.35 1.06.35 1.06.43.31.52-.02 1.02.42.22.2.53.42.81.7.23.23.35.61.59.9.22.25.6.41.82.71.2.27.24.69.44 1 .19.29.19.69.36 1.01s.27.63.42.96.41.58.53.92.11.69.2 1.04c.08.32.29.62.35.97.06.33.35.63.4.98.05.33.19.67.22 1.02s-.16.7-.14 1.05-.02.68-.01 1.03.18.68.18 1.03.09.69.07 1.04-.55.65-.58.99-.04.68-.08 1.02-.08.67-.13 1.01-.02.69-.08 1.03-.23.65-.31.98.27.78.18 1.11-.52.57-.62.89-.24.64-.36.96-.13.68-.27 1-.34.6-.49.91-.31.61-.47.91-.14.71-.32 1.01-.45.6-.65.88c-.53.14-.4-.4-1.1-.43-.31-.01-.68.2-1.11.24-.33.03-.67.18-1.06.27-.33.07-.64.28-1.01.41-.33.11-.69.15-1.04.31-.32.14-.64.31-.98.49s-.74.13-1.04.2c-.36.08-.69.09-1.01.04-.35-.05-.71-.08-1-.24-.31-.17-.5-.49-.74-.72-.27-.26-.62-.42-.8-.67-.35-.48-.47-.41-.43-.92.04-.56 0-.49.3-1.1.15-.3.68-.48.83-.86.13-.33-.09-.81.02-1.19.1-.36.55-.65.61-1.02s-.02-.78-.02-1.16-.26-.76-.27-1.11c-.01-.4.08-.77.03-1.11-.06-.4-.11-.76-.26-1.07-.17-.34-.39-.6-.73-.8-.28-.17-.6-.38-1.03-.43-.32-.04-.71-.16-1.14-.14-.4.02-.75.27-1.06.4-.35.15-.45.57-.69.82s-.41.51-.58.83-.37.6-.47.94c-.11.38-.32.71-.37 1.03-.09.63-.49.68-.2 1.14s.55.06 1.05.43c.25.19.5.48.76.76.23.25.6.47.78.79.17.3-.06.77.01 1.13.07.33.1.62.05 1-.04.32-.18.59-.33.95-.13.3.06.79-.16 1.11-.18.27-.56.44-.82.73-.22.25-.6.35-.88.61-.24.23-.49.46-.79.7z" stroke="#4f3b17" stroke-linecap="round" stroke-linejoin="round" stroke-width=".99"/><path d="m91.7301 38.54c-.3-.4-.29-.41-.59-.81s-.2-.47-.51-.87-.15-.51-.45-.91-.4-.33-.71-.72-.36-.36-.67-.76-.43-.3-.74-.7-.2-.48-.5-.88" fill="#4f3b17"/><path d="m91.7301 38.54c-.3-.4-.29-.41-.59-.81s-.2-.47-.51-.87-.15-.51-.45-.91-.4-.33-.71-.72-.36-.36-.67-.76-.43-.3-.74-.7-.2-.48-.5-.88" stroke="#4f3b17" stroke-linecap="round" stroke-linejoin="round" stroke-width=".99"/><path d="m91.6599 27.55c.34-.43.24-.35.9-.44.31-.04.69-.14 1.1-.16.34-.01.73-.03 1.11 0 .35.02.67.44 1.04.5.35.06.71.07 1.07.18.34.11.81-.06 1.15.1.32.15.46.67.77.88.3.19.73.22 1.01.47.2701.23.3301.68.5801.96.23.26.69.36.91.68.2.29.15.74.33 1.08.15.29.41.53.56.85.14.29.24.62.4.94.15.3.29.61.46.91s.51.49.68.78.39.54.59.82.18.7.4.97.65.31.9.56.35.6.61.82.5.44.79.65c.27.19.68.16.98.34.28.17.47.53.78.68.3.14.57.38.89.51.31.12.63.25.97.36.31.1.63.27.97.36s.7.07 1.04.21.55.46.86.62.63.28.93.48.63.3.92.52.51.48.77.72.79.2 1.04.45.4.6.64.87.57.46.79.74.44.57.64.87.16.75.34 1.06.44.56.62.87.19.7.34 1.02.4.6.53.93.04.74.16 1.07.6.55.7.89-.15.77-.08 1.12.54.62.59.97-.33.75-.31 1.11.37.69.38 1.04.11.73.08 1.08-.25.7-.31 1.05.06.75-.03 1.09-.16.71-.28 1.05-.29.67-.44 1-.54.77-.73 1.08c-.54-.05-.09-.65-.47-1.2-.17-.25-.31-.6-.55-.93-.19-.27-.65-.38-.88-.68-.21-.27-.39-.58-.63-.87-.22-.27-.58-.42-.83-.7s-.15-.83-.41-1.09-.74-.27-1-.52-.58-.41-.86-.65-.5-.51-.78-.73-.38-.7-.68-.9-.72-.22-1.03-.39-.71-.16-1.04-.3-.55-.59-.89-.7-.7-.26-1.06-.31-.74.37-1.1.37-.72-.24-1.07-.26-.7-.21-1.05-.25-.77.26-1.11.2-.72-.13-1.06-.22-.68-.29-1.01-.4-.53-.6-.85-.74-.86.13-1.17-.04-.49-.58-.79-.77-.4901-.53-.7701-.75-.75-.21-1.01-.45-.35-.66-.59-.92-.46-.53-.68-.81-.7-.36-.91-.65-.3-.66-.49-.97-.37-.61-.54-.93-.36-.62-.51-.94 0-.76-.11-1.08-.61-.56-.68-.89 0-.72-.05-1.07.13-.72.11-1.06-.23-.69-.24-1.04-.19-.7-.19-1.05.34-.7.33-1.05-.1-.7-.13-1.04-.14-.69-.19-1.03-.08-.69-.19-1.02-.45-.53-.62-.84-.19-.66-.43-.93c-.22-.25-.49-.45-.78-.67-.26-.2-.61-.25-.93-.44-.29-.16-.6-.53-.94-.68 0-.47.28-.44.46-.87s.24-.41.42-.84-.02-.52.18-.95.35-.32.64-.69z" fill="#4f3b17"/><path d="m91.6599 27.55c.34-.43.24-.35.9-.44.31-.04.69-.14 1.1-.16.34-.01.73-.03 1.11 0 .35.02.67.44 1.04.5.35.06.71.07 1.07.18.34.11.81-.06 1.15.1.32.15.46.67.77.88.3.19.73.22 1.01.47.2701.23.3301.68.5801.96.23.26.69.36.91.68.2.29.15.74.33 1.08.15.29.41.53.56.85.14.29.24.62.4.94.15.3.29.61.46.91s.51.49.68.78.39.54.59.82.18.7.4.97.65.31.9.56.35.6.61.82.5.44.79.65c.27.19.68.16.98.34.28.17.47.53.78.68.3.14.57.38.89.51.31.12.63.25.97.36.31.1.63.27.97.36s.7.07 1.04.21.55.46.86.62.63.28.93.48.63.3.92.52.51.48.77.72.79.2 1.04.45.4.6.64.87.57.46.79.74.44.57.64.87.16.75.34 1.06.44.56.62.87.19.7.34 1.02.4.6.53.93.04.74.16 1.07.6.55.7.89-.15.77-.08 1.12.54.62.59.97-.33.75-.31 1.11.37.69.38 1.04.11.73.08 1.08-.25.7-.31 1.05.06.75-.03 1.09-.16.71-.28 1.05-.29.67-.44 1-.54.77-.73 1.08c-.54-.05-.09-.65-.47-1.2-.17-.25-.31-.6-.55-.93-.19-.27-.65-.38-.88-.68-.21-.27-.39-.58-.63-.87-.22-.27-.58-.42-.83-.7s-.15-.83-.41-1.09-.74-.27-1-.52-.58-.41-.86-.65-.5-.51-.78-.73-.38-.7-.68-.9-.72-.22-1.03-.39-.71-.16-1.04-.3-.55-.59-.89-.7-.7-.26-1.06-.31-.74.37-1.1.37-.72-.24-1.07-.26-.7-.21-1.05-.25-.77.26-1.11.2-.72-.13-1.06-.22-.68-.29-1.01-.4-.53-.6-.85-.74-.86.13-1.17-.04-.49-.58-.79-.77-.4901-.53-.7701-.75-.75-.21-1.01-.45-.35-.66-.59-.92-.46-.53-.68-.81-.7-.36-.91-.65-.3-.66-.49-.97-.37-.61-.54-.93-.36-.62-.51-.94 0-.76-.11-1.08-.61-.56-.68-.89 0-.72-.05-1.07.13-.72.11-1.06-.23-.69-.24-1.04-.19-.7-.19-1.05.34-.7.33-1.05-.1-.7-.13-1.04-.14-.69-.19-1.03-.08-.69-.19-1.02-.45-.53-.62-.84-.19-.66-.43-.93c-.22-.25-.49-.45-.78-.67-.26-.2-.61-.25-.93-.44-.29-.16-.6-.53-.94-.68 0-.47.28-.44.46-.87s.24-.41.42-.84-.02-.52.18-.95.35-.32.64-.69z" stroke="#4f3b17" stroke-linecap="round" stroke-linejoin="round" stroke-width=".99"/><path d="m79.38 49.47c.5-.17.33-.22.97-.45.28-.1.66-.12 1.04-.26.31-.11.69-.12 1.05-.25.31-.12.49-.64.84-.77.32-.13.76.02 1.1-.12.32-.13.7-.16 1.03-.3s.62-.35.95-.5.64-.29.97-.44.63-.32.96-.48.55-.49.87-.65.59-.4.91-.57.69-.22 1-.4.54-.49.85-.67.74-.16 1.04-.35.56-.45.86-.65.61-.38.89-.59.49-.53.76-.75c.28-.24.56-.45.81-.69" stroke="#4f3b17" stroke-linecap="round" stroke-linejoin="round" stroke-width=".94"/><path d="m77.38 53.88c.5-.14.32-.26.96-.46.28-.09.53-.49.91-.61.31-.1.69-.06 1.04-.17.31-.1.69-.1 1.04-.22.32-.11.55-.5.9-.62.32-.11.65-.23.99-.35s.78.12 1.12 0 .63-.3.96-.43.65-.26.97-.39.62-.34.94-.48.61-.35.93-.49.73-.1 1.05-.24.69-.19 1.01-.35.57-.44.88-.6.57-.45.87-.61.59-.38.89-.56.72-.18 1.01-.37.41-.66.69-.86c.29-.21.69-.26.95-.48.28-.23.44-.57.68-.8" stroke="#4f3b17" stroke-linecap="round" stroke-linejoin="round" stroke-width=".94"/><path d="m68.19 110.7c-.53.11-.51.18-1.04.29s-.52.11-1.05.22-.46.4-.99.51-.6-.24-1.12-.13-.53.07-1.06.18-.51.17-1.04.28-.43.56-.96.67-.68-.38-1.17-.14c-.06.32.02.78-.01 1.13s.04.67.03 1.01-.16.67-.15 1.01.25.66.29 1-.34.72-.29 1.06.49.62.54.95-.16.73-.1 1.05.14.68.21 1c.08.34.48.59.56.91.09.35.17.68.26.98.11.37.1.73.19 1.01.19.6-.26.81.23.94s.51.27 1.01.24.48-.48.99-.5.52.12 1.02.1.51.06 1.02.04.5-.2 1.01-.22.51-.02 1.02-.04" stroke="#4f3b17" stroke-linecap="round" stroke-linejoin="round" stroke-width=".94"/><path d="m116.54 58.54c.52-.05.4.02 1.04.08.3.03.64.07 1.03.15.32.06.7-.02 1.06.1.31.1.62.3.95.46.3.14.67.23.98.42.29.18.52.47.8.69.26.21.32.65.57.9.24.24.6.36.83.64.21.26.3.61.5.91.18.28.48.5.65.82.15.3.51.52.65.86.13.31.17.68.28 1.02.11.32.14.68.23 1.03.09.33.12.67.19 1.03.07.33.29.65.34 1 .05.34.11.69.15 1.04.03.34-.32.72-.29 1.07.02.34.17.68.17 1.03s.34.69.33 1.05-.15.7-.16 1.05c-.01.29-.32.63-.36 1.04-.03.32.17.69.13 1.08-.04.33-.13.68-.18 1.05-.05.34-.08.69-.14 1.05-.06.34.08.73.01 1.09-.06.34-.56.6-.64.96s.25.78.16 1.13-.26.66-.36 1.01-.17.69-.27 1.03-.38.62-.49.96-.34.63-.46.97.01.76-.12 1.09-.23.68-.37 1-.39.61-.54.93-.41.61-.54.93c-.14.34-.36.64-.48.96-.12.34-.2.7-.29 1.03s.04.75-.05 1.09-.03.72-.1 1.06-.53.61-.6.95.25.77.17 1.12-.59.58-.68.93-.04.7-.14 1.05c-.1.33.13.77.01 1.12-.11.32-.48.57-.61.91-.12.32-.25.65-.4.98-.14.31-.12.71-.28 1.04-.15.31-.24.67-.41.99-.16.3-.6.47-.78.78-.17.3-.43.55-.62.86-.18.29-.36.59-.56.9-.18.29-.06.79-.26 1.09-.19.29-.56.47-.77.77-.2.28-.48.51-.7.81s-.15.76-.37 1.05-.77.3-1 .58-.46.53-.69.82" stroke="#4f3b17" stroke-linecap="round" stroke-linejoin="round" stroke-width=".94"/><path d="m121.25 96.05c.01.53-.31.4-.29 1.07 0 .3.05.66.06 1.06 0 .33.33.68.34 1.06 0 .33-.26.7-.25 1.07 0 .34.27.69.28 1.06 0 .35-.25.71-.25 1.07s.07.7.08 1.07.13.7.14 1.06-.2.71-.19 1.07.02.71.03 1.07-.02.71-.01 1.07.37.71.38 1.07-.23.72-.23 1.08-.02.72 0 1.07-.18.72-.17 1.08.49.71.5 1.06c0 .37-.44.73-.44 1.08" stroke="#4f3b17" stroke-linecap="round" stroke-linejoin="round" stroke-width=".94"/><path d="m126.93 148.77c.02-.36.27-.7.29-1.06s.17-.71.18-1.07.04-.72.06-1.07.06-.72.07-1.08-.33-.73-.32-1.08-.08-.72-.08-1.08.47-.72.47-1.08-.31-.72-.31-1.08.07-.72.06-1.08.17-.73.15-1.08-.51-.7-.53-1.06.33-.74.31-1.09-.37-.7-.39-1.05-.06-.72-.08-1.07.45-.75.42-1.11-.16-.71-.19-1.06-.22-.7-.25-1.05-.32-.69-.35-1.04c-.04-.36.36-.76.33-1.11-.04-.37-.45-.68-.49-1.02-.04-.37.04-.74 0-1.08-.05-.37-.05-.73-.1-1.06-.05-.37.14-.76.09-1.09-.05-.38-.19-.72-.24-1.04-.06-.41 0-.78-.05-1.07-.11-.68-.14-.55-.48-.96-.32-.1-.69-.04-1.01-.18s-.47-.6-.78-.76-.69-.17-.98-.36-.54-.42-.83-.62-.64-.3-.91-.51-.29-.74-.55-.96-.64-.31-.89-.54-.51-.47-.75-.7-.61-.37-.85-.61-.38-.6-.61-.85-.46-.53-.68-.77c-.24-.26-.36-.62-.57-.87-.24-.27-.51-.49-.72-.74-.24-.28-.46-.55-.66-.8-.25-.3-.52-.52-.7-.75-.39-.51-.17-.94-.68-.92-.55.02-.31.42-.75.95-.2.24-.41.54-.68.85-.22.26-.5.5-.75.8-.23.26-.33.66-.59.94-.24.26-.7.33-.96.6s-.44.58-.7.84-.57.45-.84.71-.22.84-.5 1.08-.88.11-1.16.35-.41.66-.7.88c-.24.18-.63.16-.99.34-.28.14-.42.69-.78.82-.3.12-.77-.15-1.12-.03-.32.1-.59.38-.94.48-.32.09-.62.36-.97.45-.33.08-.7.06-1.04.14-.33.08-.71 0-1.05.08s-.63.39-.97.46-.69.06-1.04.13-.71 0-1.05.06-.66.27-1 .33-.73-.17-1.08-.11-.66.26-1.01.32-.71-.05-1.05 0-.63.47-.98.52-.69.09-1.04.14-.74-.27-1.09-.22-.69.11-1.04.16-.65.44-.99.48-.74-.26-1.08-.22-.64.52-.99.56-.72-.13-1.07-.09-.7.08-1.04.12-.7.04-1.05.08-.71-.05-1.06-.01-.67.36-1.01.39-.72-.12-1.06-.08-.69.18-1.03.22-.7.09-1.04.12-.72-.14-1.06-.11c-.36.03-.68.35-1.02.38-.36.03-.74-.33-1.08-.3-.36.03-.69.31-1.02.34-.37.03-.72 0-1.05.02-.38.03-.72.16-1.03.18-.4.03-.74.27-1.03.29-.66.05-.94-.17-.94-.17-.04.52-.21.51-.26 1.03s.27.55.23 1.07-.33.5-.38 1.02-.22.51-.26 1.03.4.56.35 1.08-.05.52-.09 1.04-.25.5-.29 1.03-.14.51-.18 1.03-.19.51-.24 1.03.18.54.14 1.06-.21.51-.26 1.03.33.55.28 1.07-.38.49-.42 1.01-.07.52-.12 1.04-.15.51-.19 1.03.08.53.03 1.05.1.54.05 1.06-.3.5-.35 1.02.09.53.04 1.06.3.55.25 1.07-.09.52-.13 1.04 0 .53-.05 1.05-.35.5-.39 1.03-.1.54.03 1.05.31.2.98.31c.29.05.66-.04 1.06.03.31.05.63.28 1.01.34.32.05.7-.08 1.07-.02.33.05.62.41.98.47.33.05.68.08 1.04.14.33.05.7 0 1.05.06.34.05.7 0 1.05.05s.67.18 1.03.24.72-.13 1.07-.08.63.48.98.53.71-.02 1.06.03.74-.26 1.09-.21.63.5.99.54.72-.16 1.07-.12.7-.02 1.05.03.64.49.99.53.73-.22 1.08-.18.7.03 1.05.07.7.04 1.04.08.65.43 1 .47.7.05 1.04.09.7.06 1.04.1.73-.25 1.08-.21.68.23 1.03.27.67.33 1.02.36.73-.29 1.08-.26.7.09 1.05.12.71-.05 1.06-.03.7.02 1.05.05.68.44 1.03.46.72-.27 1.07-.25.69.28 1.04.3.7.11 1.05.13.72-.38 1.07-.37.69.48 1.04.49.71-.14 1.05-.14.7-.19 1.05-.19.71-.04 1.05-.05.7 0 1.05-.02.71.35 1.06.34.69-.29 1.04-.31.69-.19 1.03-.22.71.05 1.05.01c.36-.04.7-.17 1.04-.2s.72.05 1.06 0c.36-.04.69-.2 1.03-.25.36-.05.73.12 1.07.07.36-.05.72-.01 1.06-.07.36-.06.69-.19 1.03-.25.36-.06.71-.11 1.04-.17.36-.07.69-.21 1.02-.28.36-.08.71-.11 1.04-.19.36-.09.71-.15 1.03-.24.36-.1.7-.19 1.01-.29.36-.11.68-.26.99-.38.36-.14.69-.27.97-.4.37-.17.78-.17 1.04-.33.37-.22.61-.53.81-.72.56-.51.28-.42.3-.94z" fill="#eacbca"/><path d="m126.93 148.77c.02-.36.27-.7.29-1.06s.17-.71.18-1.07.04-.72.06-1.07.06-.72.07-1.08-.33-.73-.32-1.08-.08-.72-.08-1.08.47-.72.47-1.08-.31-.72-.31-1.08.07-.72.06-1.08.17-.73.15-1.08-.51-.7-.53-1.06.33-.74.31-1.09-.37-.7-.39-1.05-.06-.72-.08-1.07.45-.75.42-1.11-.16-.71-.19-1.06-.22-.7-.25-1.05-.32-.69-.35-1.04c-.04-.36.36-.76.33-1.11-.04-.37-.45-.68-.49-1.02-.04-.37.04-.74 0-1.08-.05-.37-.05-.73-.1-1.06-.05-.37.14-.76.09-1.09-.05-.38-.19-.72-.24-1.04-.06-.41 0-.78-.05-1.07-.11-.68-.14-.55-.48-.96-.32-.1-.69-.04-1.01-.18s-.47-.6-.78-.76-.69-.17-.98-.36-.54-.42-.83-.62-.64-.3-.91-.51-.29-.74-.55-.96-.64-.31-.89-.54-.51-.47-.75-.7-.61-.37-.85-.61-.38-.6-.61-.85-.46-.53-.68-.77c-.24-.26-.36-.62-.57-.87-.24-.27-.51-.49-.72-.74-.24-.28-.46-.55-.66-.8-.25-.3-.52-.52-.7-.75-.39-.51-.17-.94-.68-.92-.55.02-.31.42-.75.95-.2.24-.41.54-.68.85-.22.26-.5.5-.75.8-.23.26-.33.66-.59.94-.24.26-.7.33-.96.6s-.44.58-.7.84-.57.45-.84.71-.22.84-.5 1.08-.88.11-1.16.35-.41.66-.7.88c-.24.18-.63.16-.99.34-.28.14-.42.69-.78.82-.3.12-.77-.15-1.12-.03-.32.1-.59.38-.94.48-.32.09-.62.36-.97.45-.33.08-.7.06-1.04.14-.33.08-.71 0-1.05.08s-.63.39-.97.46-.69.06-1.04.13-.71 0-1.05.06-.66.27-1 .33-.73-.17-1.08-.11-.66.26-1.01.32-.71-.05-1.05 0-.63.47-.98.52-.69.09-1.04.14-.74-.27-1.09-.22-.69.11-1.04.16-.65.44-.99.48-.74-.26-1.08-.22-.64.52-.99.56-.72-.13-1.07-.09-.7.08-1.04.12-.7.04-1.05.08-.71-.05-1.06-.01-.67.36-1.01.39-.72-.12-1.06-.08-.69.18-1.03.22-.7.09-1.04.12-.72-.14-1.06-.11c-.36.03-.68.35-1.02.38-.36.03-.74-.33-1.08-.3-.36.03-.69.31-1.02.34-.37.03-.72 0-1.05.02-.38.03-.72.16-1.03.18-.4.03-.74.27-1.03.29-.66.05-.94-.17-.94-.17-.04.52-.21.51-.26 1.03s.27.55.23 1.07-.33.5-.38 1.02-.22.51-.26 1.03.4.56.35 1.08-.05.52-.09 1.04-.25.5-.29 1.03-.14.51-.18 1.03-.19.51-.24 1.03.18.54.14 1.06-.21.51-.26 1.03.33.55.28 1.07-.38.49-.42 1.01-.07.52-.12 1.04-.15.51-.19 1.03.08.53.03 1.05.1.54.05 1.06-.3.5-.35 1.02.09.53.04 1.06.3.55.25 1.07-.09.52-.13 1.04 0 .53-.05 1.05-.35.5-.39 1.03-.1.54.03 1.05.31.2.98.31c.29.05.66-.04 1.06.03.31.05.63.28 1.01.34.32.05.7-.08 1.07-.02.33.05.62.41.98.47.33.05.68.08 1.04.14.33.05.7 0 1.05.06.34.05.7 0 1.05.05s.67.18 1.03.24.72-.13 1.07-.08.63.48.98.53.71-.02 1.06.03.74-.26 1.09-.21.63.5.99.54.72-.16 1.07-.12.7-.02 1.05.03.64.49.99.53.73-.22 1.08-.18.7.03 1.05.07.7.04 1.04.08.65.43 1 .47.7.05 1.04.09.7.06 1.04.1.73-.25 1.08-.21.68.23 1.03.27.67.33 1.02.36.73-.29 1.08-.26.7.09 1.05.12.71-.05 1.06-.03.7.02 1.05.05.68.44 1.03.46.72-.27 1.07-.25.69.28 1.04.3.7.11 1.05.13.72-.38 1.07-.37.69.48 1.04.49.71-.14 1.05-.14.7-.19 1.05-.19.71-.04 1.05-.05.7 0 1.05-.02.71.35 1.06.34.69-.29 1.04-.31.69-.19 1.03-.22.71.05 1.05.01c.36-.04.7-.17 1.04-.2s.72.05 1.06 0c.36-.04.69-.2 1.03-.25.36-.05.73.12 1.07.07.36-.05.72-.01 1.06-.07.36-.06.69-.19 1.03-.25.36-.06.71-.11 1.04-.17.36-.07.69-.21 1.02-.28.36-.08.71-.11 1.04-.19.36-.09.71-.15 1.03-.24.36-.1.7-.19 1.01-.29.36-.11.68-.26.99-.38.36-.14.69-.27.97-.4.37-.17.78-.17 1.04-.33.37-.22.61-.53.81-.72.56-.51.28-.42.3-.94z" stroke="#4f3b17" stroke-linecap="round" stroke-linejoin="round" stroke-width=".94"/><path d="m40.4301 44.79c.5.1.33.28.95.47.28.09.61.18.97.32.3.11.71.02 1.05.17.3.14.41.69.72.86.29.16.78-.02 1.09.17.28.18.38.65.66.86s.64.27.91.5.5.46.75.7.61.37.84.63.39.57.6.85.23.66.42.96.61.44.78.75c.18.35 0 .81.12 1.13.13.37.36.66.42 1 .06.39-.11.72-.13 1.07-.02.39 0 .71-.11 1.04-.11.36-.12.73-.3 1.03-.2.33-.38.65-.61.91-.27.3-.6.5-.85.69-.51.39-.31.59-.8.82" stroke="#4f3b17" stroke-linecap="round" stroke-linejoin="round" stroke-width=".87"/><path d="m42.2299 57.17c.15.49.22.37.14.99-.04.29.11.73-.06 1.09-.13.28-.39.58-.64.87-.2.24-.6.34-.89.58-.24.2-.44.53-.76.72-.28.16-.74 0-1.08.16" stroke="#4f3b17" stroke-linecap="round" stroke-linejoin="round" stroke-width=".87"/><path d="m48.72 67.15c-.31.38-.17.35-.73.59-.25.11-.52.45-.9.51-.29.04-.65-.01-1.02-.03-.3-.02-.6-.27-.96-.35" stroke="#4f3b17" stroke-linecap="round" stroke-linejoin="round" stroke-width=".87"/><path d="m47.36 55.21c.15.49-.08.49-.16 1.11-.04.29.04.72-.12 1.08-.13.28-.47.51-.72.8-.2.24-.44.49-.74.73-.24.2-.59.3-.91.49-.28.16-.47.55-.81.71" stroke="#4f3b17" stroke-linecap="round" stroke-linejoin="round" stroke-width=".87"/><path d="m37.13 60.13c.19.47.28.34.3.94 0 .3-.17.6-.26.97-.08.3.05.71-.13 1.03-.15.27-.35.57-.6.85-.21.23-.61.3-.91.52-.25.19-.41.57-.73.75-.28.16-.64.21-.97.36" stroke="#4f3b17" stroke-linecap="round" stroke-linejoin="round" stroke-width=".87"/><path d="m35.23 65.56c-.55-.18-.57.01-1.21-.04-.36-.03-.72.24-1.11.33s-.88-.07-1.16.22c-.24.25-.24.69-.33 1.14-.08.38-.22.71-.14 1.01.08.35.34.61.55.87s.49.47.77.65c.3.2.6.39.88.51.54.22.45.26.95.36" stroke="#4f3b17" stroke-linecap="round" stroke-linejoin="round" stroke-width=".87"/><path d="m38.04 44.49c-.54-.09-.38.07-1.08.06-.31 0-.67-.17-1.09-.14-.33.03-.68.12-1.08.18-.34.05-.73-.06-1.11.03-.34.08-.61.46-.97.58-.34.1-.77-.05-1.13.08-.33.13-.55.55-.89.71-.32.15-.82-.02-1.15.16-.31.17-.56.48-.89.68-.3.19-.53.5-.84.72-.28.2-.57.38-.84.6s-.44.54-.7.77-.66.3-.9.55-.43.55-.66.81-.71.32-.92.59-.14.76-.34 1.05-.43.54-.61.84-.43.55-.59.86-.46.56-.6.88-.24.67-.35 1 .03.74-.05 1.08-.2.66-.26 1.01 0 .69-.03 1.04-.15.68-.15 1.03-.16.71-.13 1.05.16.69.21 1.03.06.7.15 1.04.29.64.4.98.33.61.47.93.08.73.24 1.04.47.53.65.84" stroke="#4f3b17" stroke-linecap="round" stroke-linejoin="round" stroke-width=".87"/><path d="m26.2 71.34c.43.29.24.44.83.7.27.12.68.07 1.06.19.31.09.67.08 1.03.15.32.06.67-.04 1.04-.01.33.02.65-.04 1.02-.06.33-.02.7499-.04 1.0999-.1.45.12.22.47.41.98.09.24.4101.53.4001.89 0 .27-.0201.65-.1301.98-.09.26-.3599.52-.5299.82" stroke="#4f3b17" stroke-linecap="round" stroke-linejoin="round" stroke-width=".87"/><path d="m30.74 76.99c.28-.2.47-.55.76-.71s.76.03 1.08-.1.55-.44.88-.54.64-.25.97-.32.71.11 1.04.07.65-.32.99-.34.68-.17 1.02-.17.69.17 1.02.18.69.06 1.02.08c.35.03.71-.15 1.04-.11.35.04.65.37.97.42.36.06.69.12 1 .18.38.08.7.19.99.25.61.15.53-.03 1.01.11s.27.36.9.57c.28.09.6.21.97.34.3.1.7 0 1.05.12.3.11.61.27.95.41.31.12.56.42.89.56.31.13.76-.05 1.09.09.31.13.6.33.92.48s.62.28.94.44.66.22.97.37.49.55.8.71.75.07 1.05.24.58.38.88.55.56.41.86.59.52.47.81.66.62.32.91.51.68.24.96.44" stroke="#4f3b17" stroke-linecap="round" stroke-linejoin="round" stroke-width=".87"/><path d="m59.75 85.52c-.02.52.27.45.19 1.06-.04.31-.13.67-.21 1.04-.08.33-.5.57-.62.9s.03.78-.15 1.07c-.19.31-.45.63-.71.84-.51.19-.44.05-1.11.09-.31.02-.68-.11-1.09-.09-.34.02-.7-.08-1.09-.07-.35 0-.71.15-1.08.15-.35 0-.72.25-1.09.24s-.71-.34-1.08-.36-.73.05-1.09.02-.73-.08-1.08-.12c-.37-.05-.72-.15-1.06-.22-.37-.07-.69-.25-1.02-.35-.37-.11-.65-.3-.94-.45" stroke="#4f3b17" stroke-linecap="round" stroke-linejoin="round" stroke-width=".87"/><path d="m29.57 78.43c-.21.49-.31.29-.55.93-.1.28-.03.68-.16 1.06-.1.3 0 .71-.11 1.07-.1.32-.26.63-.37.99-.09.33-.28.64-.37.99-.09.33-.49.6-.57.95-.08.33.04.73-.03 1.08s-.14.69-.2 1.04.03.71-.02 1.07-.05.7-.1 1.05-.39.66-.43 1.02-.12.7-.15 1.06.16.72.15 1.07-.3.7-.3 1.06.15.71.16 1.06.21.7.23 1.05-.08.71-.04 1.07.09.7.14 1.05 0 .72.06 1.07.27.67.35 1.01.11.7.21 1.04.39.62.5.96.03.74.16 1.07.51.55.66.87.08.75.24 1.06.39.61.56.91.42.58.61.88.41.59.61.87.48.53.69.81.39.6.61.87.2.78.43 1.04.75.29 1 .53.51.5.77.73.37.66.64.89.57.45.84.66.78.14 1.07.33c.3.21.58.4.88.58.31.19.38.78.68.95.32.18.86-.09 1.17.06.33.16.64.31.95.44.35.14.63.37.94.48.36.13.64.42.95.51.39.11.76.15 1.05.21.66.14.51.18 1.03.22" stroke="#4f3b17" stroke-linecap="round" stroke-linejoin="round" stroke-width=".87"/><path d="m60.4 122.58c-.37.04-.71.31-1.07.35s-.76-.15-1.13-.11-.71.31-1.08.35-.73.15-1.09.18-.77-.19-1.13-.16c-.38.03-.73.25-1.08.28-.39.03-.75.14-1.1.17-.39.03-.78-.18-1.12-.15-.42.03-.76.5-1.07.52-.69.05-1.11.01-1.11.01-.32 0-.68-.04-1.04-.08-.32-.04-.62-.36-.97-.43-.32-.07-.68-.04-1.02-.14-.32-.09-.62-.27-.96-.38-.32-.1-.59-.33-.92-.46s-.77.1-1.09-.04-.62-.31-.93-.45-.49-.54-.8-.7-.57-.38-.87-.55-.59-.33-.89-.51-.8-.02-1.09-.21-.53-.46-.81-.66c-.34-.25-.56-.65-.75-1.01s-.5-.78-.5-1.2c0-.13.04-.13.04-.25" stroke="#4f3b17" stroke-linecap="round" stroke-linejoin="round" stroke-width=".87"/><path d="m35.03 111.68c-.52.23-.41.43-.67 1.02-.12.28-.42.69-.35 1.16.05.31.38.65.58 1.06" stroke="#4f3b17" stroke-linecap="round" stroke-linejoin="round" stroke-width=".87"/><path d="m64.56 124.85c.3.31.18.74.14 1.09-.04.33-.24.56-.5.87-.22.26-.27.75-.59.97-.29.21-.62.44-.97.59s-.77.11-1.12.18c-.33.07-.68 0-1.01.06s-.64.31-.96.35c-.34.04-.67.13-1 .16-.34.03-.68.03-1.01.04-.35 0-.7.14-1.02.13-.35-.02-.65-.5-.96-.54-.35-.05-.67-.06-.97-.14-.35-.09-.68-.1-.96-.23-.33-.16-.58-.35-.79-.56-.25-.25-.51-.52-.64-.87s-.2-.71-.24-1.07c-.05-.38.11-.76.12-1.09.02-.62-.24-.56-.15-1.1" stroke="#4f3b17" stroke-linecap="round" stroke-linejoin="round" stroke-width=".87"/><path d="m51.67 90.83c.2.46.49.33.69.78s.07.51.27.96-.04.56.15 1.01.16.47.35.92.59.28.79.74 0 .54.19 1 .2.46.4.92.15.48.35.94" stroke="#4f3b17" stroke-linecap="round" stroke-linejoin="round" stroke-width=".87"/><path d="m41.02 100.12c.5-.14.4 0 1.03-.15.28-.07.65-.04 1.03-.13.31-.07.61-.32.97-.39.32-.07.73.22 1.08.16.33-.06.66-.16 1.01-.22.33-.06.68-.03 1.03-.08s.61-.55.96-.59.7.05 1.05.01.68-.22 1.02-.25.71.31 1.06.29.68-.21 1.03-.22.69.23 1.03.24c.36 0 .71-.04 1.08.04.35.07.82-.16 1.17-.03s.65.4.99.56.49.59.79.77.83.05 1.12.27.47.58.73.82.52.5.76.76.22.73.44 1.02.49.51.68.81.69.43.85.75.32.66.46.99.23.69.33 1.04-.14.77-.06 1.12.18.68.23 1.03.21.69.23 1.05c.03.55-.25.56-.22 1.11s.32.54.35 1.09" stroke="#4f3b17" stroke-linecap="round" stroke-linejoin="round" stroke-width=".87"/><path d="m58.04 99.98c.41-.29.22-.29.93-.43.26-.05.6-.1 1.01-.13.29-.03.63-.04 1.01-.05.31 0 .65.21 1.02.22.3 0 .6.02.91.11.29.08.52.31.81.45.33.16.8.01 1.06.17.32.19.6.42.84.61.28.23.45.56.65.81.22.27.38.57.53.87s.18.63.3.97" stroke="#4f3b17" stroke-linecap="round" stroke-linejoin="round" stroke-width=".49"/><path d="m61.51 84.02c.09-.53.24-.42.94-.73.25-.11.62-.11 1.06-.18.3-.05.64-.34 1.05-.35.32 0 .69.02 1.08.04.33.02.66.44 1.04.48s.8-.35 1.1-.29c.4.09.77.23 1.03.35.41.2.35.74.47.98.16.33.22.56.08.87-.2.48-.09.55-.55.78-.39.19-.29.46-.71.58s-.46-.13-.82.11c-.42.29.31.1.88.23.3.07.75-.2 1.09-.06.32.13.51.51.78.72s.5.43.65.75c.13.29.2.59.18.98-.03.5.08.93-.04 1.18-.22.46-.73.43-1.04.51-.37.1-.63.22-.69.76-.05.4-.07.77-.11 1.09-.05.39-.11.85-.45 1.06-.23.14-.65.17-1.13.21-.39.03-.75.12-1.1.21s-.72.34-1.09.4-.77-.15-1.17-.22c-.33-.06-.65-.26-1.03-.46-.29-.16-.77-.14-1.11-.41-.27-.22-.29-.71-.54-.91-.27-.22-.79-.11-1.03-.3-.28-.23-.22-.83-.46-1.02-.3-.24-.69-.28-.9-.45-.49-.39-.42-.25-.8-.56" stroke="#4f3b17" stroke-linecap="round" stroke-linejoin="round" stroke-width=".87"/><path d="m104.27 76.76c-.15.45-.09.47-.24.92s-.04.49-.19.94-.2.44-.35.89-.25.42-.4.88.25.59.1 1.04" fill="#edabaa"/><path d="m104.27 76.76c-.15.45-.09.47-.24.92s-.04.49-.19.94-.2.44-.35.89-.25.42-.4.88.25.59.1 1.04" stroke="#4f3b17" stroke-linecap="round" stroke-linejoin="round" stroke-width=".94"/><path d="m59.28 113.97c-.54-.12-.48.21-1.15.08-.31-.06-.64-.34-1.05-.42-.34-.06-.77.23-1.15.16-.35-.06-.68-.34-1.06-.4s-.74 0-1.11-.05-.7-.43-1.06-.47-.76.03-1.13 0c-.38-.03-.76.09-1.12.08-.4-.01-.78-.27-1.12-.25-.36.02-.7.32-1.04.32-.37 0-.72.06-1.06.06-.38 0-.72 0-1.05.02-.4.02-.74-.02-1.04.08-.36.12-.43.39-.58.71-.12.26-.38.48-.34.92.03.37.02.86.26 1.12s.74.19 1.1.26c.51.06.53-.08 1.04-.02s.49.31 1 .36.52.06 1.03.11.52.02 1.04.08.5.25 1.02.3.56-.32 1.07-.27" stroke="#4f3b17" stroke-linecap="round" stroke-linejoin="round" stroke-width=".87"/><path d="m34.6801 114.79c.45.31.13.56.68.93.26.17.84-.04 1.18.18.28.18.5.52.82.72.3.19.61.37.93.56s.44.67.76.85.75.17 1.06.35c.33.18.59.48.9.64.35.18.76.18 1.06.31.39.17.77.12 1.05.18" stroke="#4f3b17" stroke-linecap="round" stroke-linejoin="round" stroke-width=".94"/><path d="m97.16 103.86c.27-.5.39-.31 1.26-.24.29.02.6.3 1.06.45.31.1.79-.09 1.2.09" stroke="#4f3b17" stroke-linecap="round" stroke-linejoin="round" stroke-width=".94"/><path d="m125.55 120.75c.54.03.38.32 1.06.38.31.03.67.05 1.08.1.33.04.72-.1 1.1-.05.34.05.68.25 1.05.31.35.06.74-.06 1.1 0s.65.39 1.01.47.69.2 1.05.29.72.09 1.07.19.63.41.97.52.74.07 1.07.2.75.1 1.08.26.5.63.8.81c.32.19.76.16 1.05.37.3.22.63.42.87.67.26.27.18.77.36 1.07s.42.48.51.83c-.1.52.12.58-.06 1.08s-.31.45-.49.94-.29.46-.47.95.25.95-.24 1.14-.44-.45-.88-.7-.5-.15-.94-.41-.46-.22-.89-.48-.27-.55-.7-.8-.54-.09-.98-.34-.37-.37-.81-.63-.45-.23-.89-.49-.42-.29-.86-.54-.4-.32-.84-.58-.65.11-1.09-.15-.27-.55-.7-.81-.63.07-1.07-.19-.38-.36-.82-.62-.51-.15-.95-.41-.42-.31-.86-.57" fill="#eacbca"/><path d="m125.55 120.75c.54.03.38.32 1.06.38.31.03.67.05 1.08.1.33.04.72-.1 1.1-.05.34.05.68.25 1.05.31.35.06.74-.06 1.1 0s.65.39 1.01.47.69.2 1.05.29.72.09 1.07.19.63.41.97.52.74.07 1.07.2.75.1 1.08.26.5.63.8.81c.32.19.76.16 1.05.37.3.22.63.42.87.67.26.27.18.77.36 1.07s.42.48.51.83c-.1.52.12.58-.06 1.08s-.31.45-.49.94-.29.46-.47.95.25.95-.24 1.14-.44-.45-.88-.7-.5-.15-.94-.41-.46-.22-.89-.48-.27-.55-.7-.8-.54-.09-.98-.34-.37-.37-.81-.63-.45-.23-.89-.49-.42-.29-.86-.54-.4-.32-.84-.58-.65.11-1.09-.15-.27-.55-.7-.81-.63.07-1.07-.19-.38-.36-.82-.62-.51-.15-.95-.41-.42-.31-.86-.57" stroke="#4f3b17" stroke-linecap="round" stroke-linejoin="round" stroke-width=".94"/><path d="m127.51 136.8c.2.34.16.82.39 1.11.24.32.51.6.78.85.29.27.69.35 1.01.53s.61.47.98.56c.51-.12.42-.37.91-.56s.59.04 1.07-.16.51-.16 1-.36.78 0 .95-.5-.1-.56-.37-.99-.42-.33-.69-.76-.43-.32-.71-.75.02-.61-.26-1.04-.5-.29-.77-.71-.33-.39-.6-.82.04-.63-.23-1.06-.37-.37-.65-.8-.54-.26-.82-.69-.16-.5-.44-.93-.18-.49-.45-.92-.44-.32-.72-.75-.1-.54-.38-.97-.38-.37-.66-.8-.31-.41-.59-.84" fill="#eacbca"/><g stroke="#4f3b17" stroke-linecap="round" stroke-linejoin="round"><path d="m127.51 136.8c.2.34.16.82.39 1.11.24.32.51.6.78.85.29.27.69.35 1.01.53s.61.47.98.56c.51-.12.42-.37.91-.56s.59.04 1.07-.16.51-.16 1-.36.78 0 .95-.5-.1-.56-.37-.99-.42-.33-.69-.76-.43-.32-.71-.75.02-.61-.26-1.04-.5-.29-.77-.71-.33-.39-.6-.82.04-.63-.23-1.06-.37-.37-.65-.8-.54-.26-.82-.69-.16-.5-.44-.93-.18-.49-.45-.92-.44-.32-.72-.75-.1-.54-.38-.97-.38-.37-.66-.8-.31-.41-.59-.84" stroke-width=".94"/><path d="m60.12 32.32c.49.52.55.55.64 1.16" stroke-width=".74"/><path d="m46.3 63.57c-.23-.36-.17-.26-.29-.75" stroke-width=".74"/><path d="m12.3599 27.31c.23.2.33.09.56.29.21.19.38.57.65.62s.65 0 .92-.1l-.07-.19c.39-.14.81-.28 1.16-.2.37.09.79.33 1.05.6s.23.75.3 1.12c.07.35-.01.65-.17 1.03-.07.17.02.21-.05.39-.12.28.11.59.12.89s-.3.66-.16.93c.05.11 0 .14.05.25.18.37.19.63.16 1-.04.38.12.82-.1 1.12s-.5.7-.86.85c-.33.15-.78-.07-1.19-.11-.08 0-.1.16-.17.15-.34-.04-.75-.31-1.06-.19s-.4.63-.63.88c-.05.06-.09.02-.14.08-.28.3-.73.28-1.08.38-.37.11-.78.49-1.15.39s-.76996-.39-1.04996-.66c-.26-.26-.32-.71-.42-1.11-.03-.12-.07-.11-.1-.23-.07-.29-.36-.43-.54-.66s-.36-.34-.62-.48c-.17-.09-.05-.32-.21-.4-.37-.19-.78-.37-.96-.69-.19-.34-.22-.8-.19-1.18s.43-.6.66-.91c.21-.29.39-.51.77-.65.27-.1.63-.26.81-.48s-.14-.67-.09-.95c.05-.3.22-.28.27-.58.06-.4.13-.87.36-1.15.25-.3.74-.37 1.08996-.49.35-.12.77-.37 1.15-.3.36.07.63.46.93.73z" stroke-width=".45"/><path d="m3.41002 48.71c.22.08.14.3.36.38.4.15.87-.08 1.19-.36l.04.05c.32-.28.68-.13 1.04-.11.39.03.67.04.93.32.25.27.57.55.55.97 0 .14.15.15.14.29-.02.46-.07.9.27 1.21.07.07.1.04.17.1.3.29.25.7.28 1.06.03.39.13.78-.1 1.09-.21.3-.57.45-.98.55-.06.01 0 .24-.06.25-.5.12-.89.35-1.08.83-.02.05-.23-.03-.25.02-.16.39-.22.88-.55 1.05-.35.17-.79-.12-1.16-.21s-.66-.17-.9-.52c-.05-.08-.1-.04-.16-.12-.26-.38-.7-.54-1.16-.59-.14-.02-.13-.15-.27-.17-.42-.05-.56-.36-.789998-.64-.24-.3-.34-.51-.3-.89.03-.36 0-.7.33-.97l-.14-.17c.329998-.28.689998-.61.599998-1.04-.05-.23-.34-.17-.39-.4-.079998-.41.02-.92.2-1.24.19-.34.7-.4 1.06-.53s.74-.37 1.13-.22z" stroke-width=".49"/><path d="m115.21 56.7c-.35.4-.34-.03-.99.14-.29.08-.59.3-.97.45-.3.12-.69.13-1.03.31-.29.15-.62.32-.94.52-.28.17-.37.68-.67.9-.27.2-.59.34-.88.58-.26.22-.65.3-.92.56-.25.23-.39.59-.64.85-.23.25-.59.41-.82.69-.22.26-.21.72-.43 1.01-.21.27-.62.41-.82.71-.19.28-.18.71-.37 1.02s-.59.46-.77.77c-.17.3-.33.62-.5.94s-.17.7-.32 1.03-.38.59-.53.93c-.13.29-.46.55-.57.9-.1.31.17.74.09 1.09-.07.32-.19.64-.25.99-.06.33.01.68-.03 1.03s-.49.64-.51.99.28.7.27 1.05-.22.68-.22 1.03.11.68.12 1.03.21.67.23 1.02-.21.7-.18 1.05.13.68.17 1.02-.1.71-.05 1.05.23.66.29 1.01c-.09.34-.07.71-.16 1.05s-.53.59-.62.93.22.79.14 1.13-.42.62-.51.96-.14.7-.22 1.04-.05.72-.14 1.06-.34.65-.43.99-.24.67-.33 1.01.11.76.02 1.1-.12.7-.2 1.04-.35.65-.43.99-.15.69-.24 1.03.06.75-.02 1.08-.3.66-.38 1-.15.7-.23 1.03c-.09.35-.24.68-.32 1.01-.09.36-.1.71-.18 1.05-.09.36-.12.71-.2 1.04-.09.36-.36.66-.44.98-.09.37-.31.68-.38.99-.09.4-.12.76-.18 1.05-.15.66.21.6-.25.85s-.46.12-.98.24-.45.4-.97.53-.6-.2-1.11-.08-.45.42-.97.55-.55-.02-1.07.11-.52.14-1.04.26-.54.03-1.06.15-.43.49-.95.62-.56-.05-1.08.08-.49.26-1.01.39-.62-.3-1.14-.17-.44.45-.96.57-.49.23-1.01.35-.61-.25-1.13-.13-.53.08-1.05.2-.46.38-.98.5-.58-.13-1.1 0-.45.41-.97.53-.51.17-1.03.29-.53.08-1.05.2-.52.11-1.05.24-.58-.13-1.1 0-.49.24-1.02.36-.5.18-1.02.31-.54.04-1.06.17-.45.41-.98.53-.55.02-1.07.15-.53.36-1.07.3.05-.48-.04-1.14c-.04-.29.03-.65-.03-1.04-.04-.31-.31-.62-.36-.99-.04-.32-.06-.67-.11-1.03-.04-.33-.31-.64-.36-1-.04-.33.35-.73.3-1.09-.04-.33-.3-.65-.35-1s-.02-.69-.07-1.04-.03-.69-.07-1.04-.06-.68-.11-1.03-.02-.69-.06-1.03-.24-.66-.28-1.01.07-.7.03-1.05-.35-.65-.39-1-.03-.69-.07-1.04-.19-.77-.22-1.12c.41 0 .87.1 1.2-.02.36-.13.71-.32.99-.56s.55-.52.78-.82.13-.8.33-1.12.56-.53.75-.84.36-.67.58-.96c.23-.31.67-.55.69-.85.02-.34-.39-.65-.55-.95s-.47-.42-.71-.67c-.24-.26-.39-.57-.64-.74-.44-.3-.91-.6-.98-.53.19-.47.52-.33.72-.8.17-.39-.04-.83-.06-.99-.04-.39.05-.85-.27-1.02-.27-.14-.73-.04-1.1-.09-.34-.05-.7-.03-1.05-.05-.38-.02-.76.03-1.06-.02-.47-.07-.97-.32-.97-.64s.11-.69.14-1.07c.02-.33.17-.67.21-1.04.04-.34.1-.68.15-1.04.05-.34.08-.69.13-1.05.06-.34.34-.65.41-1s-.03-.71.04-1.07.03-.71.11-1.06-.08-.73 0-1.08.22-.67.3-1.02.25-.67.33-1.01.14-.69.22-1.04.52-.6.6-.95-.17-.77-.09-1.12.12-.7.21-1.04.29-.66.38-1 .29-.66.38-1-.06-.75.04-1.09.51-.6.61-.93.22-.68.31-1.02.11-.72.2-1.05c.1-.35.17-.7.26-1.03.1-.35.05-.74.14-1.06.11-.36.35-.66.44-.98.11-.37.39-.65.48-.96.12-.39.11-.77.2-1.05.2-.64.04-.49.39-.88.33-.37.25-.41.63-.73s.44-.25.82-.57.34-.37.72-.69.35-.36.73-.68.23-.56.67-.8c.46-.25-.12.5-.43 1.06-.15.27-.13.67-.3 1.02-.15.3-.75.42-.89.75-.13.32-.23.68-.34 1.02s.1.77.02 1.11-.37.68-.39 1.02c-.02.37.03.75.1 1.09.08.35.26.7.46.99.21.31.52.54.77.79s.51.55.81.74.57.53.92.67.81-.18 1.17-.1c.34.07.65.44 1.03.47.35.03.73-.3 1.1-.3.35 0 .72.28 1.1.25.35-.03.7-.23 1.07-.28.35-.04.69-.22 1.06-.28.31-.05.71.2 1.08.12.32-.07.6-.4.96-.49.32-.08.74.14 1.09.05.33-.09.68-.11 1.03-.21s.53-.64.87-.74.77.17 1.11.06.67-.18 1-.3.54-.56.87-.68.73-.02 1.06-.15.71-.13 1.03-.26.6-.39.92-.52.67-.23.98-.37.61-.37.91-.52c.32-.17.46-.63.75-.8.31-.18.79-.06 1.07-.25.31-.2.67-.33.92-.53.29-.24.51-.53.72-.77.37-.36.42-.3.8-.65s.37-.37.75-.71.19-.56.57-.91.43-.29.82-.64.5-.22.89-.56.44-.28.83-.63.32-.42.7-.76.11-.65.5-1 .56-.16.94-.51.37-.36.76-.72.36-.37.81-.63.35.08 1 .21c.3.06.62.19 1.01.31.32.1.79-.14 1.14.01.31.13.44.68.76.87.3.17.77.09 1.07.31.28.21.35.66.62.92.25.24.76.26.99.54.22.27.26.68.45 1 .18.3.51.53.66.87.14.31-.09.77.03 1.13.11.33.57.57.65.94.07.34-.07.65-.02 1.02z" stroke-width="1.23"/><path d="m115.21 56.7c-.35.4-.34-.03-.99.14-.29.08-.59.3-.97.45-.3.12-.69.13-1.03.31-.29.15-.62.32-.94.52-.28.17-.37.68-.67.9-.27.2-.59.34-.88.58-.26.22-.65.3-.92.56-.25.23-.39.59-.64.85-.23.25-.59.41-.82.69-.22.26-.21.72-.43 1.01-.21.27-.62.41-.82.71-.19.28-.18.71-.37 1.02s-.59.46-.77.77c-.17.3-.33.62-.5.94s-.17.7-.32 1.03-.38.59-.53.93c-.13.29-.46.55-.57.9-.1.31.17.74.09 1.09-.07.32-.19.64-.25.99-.06.33.01.68-.03 1.03s-.49.64-.51.99.28.7.27 1.05-.22.68-.22 1.03.11.68.12 1.03.21.67.23 1.02-.21.7-.18 1.05.13.68.17 1.02-.1.71-.05 1.05.23.66.29 1.01c-.09.34-.07.71-.16 1.05s-.53.59-.62.93.22.79.14 1.13-.42.62-.51.96-.14.7-.22 1.04-.05.72-.14 1.06-.34.65-.43.99-.24.67-.33 1.01.11.76.02 1.1-.12.7-.2 1.04-.35.65-.43.99-.15.69-.24 1.03.06.75-.02 1.08-.3.66-.38 1-.15.7-.23 1.03c-.09.35-.24.68-.32 1.01-.09.36-.1.71-.18 1.05-.09.36-.12.71-.2 1.04-.09.36-.36.66-.44.98-.09.37-.31.68-.38.99-.09.4-.12.76-.18 1.05-.15.66.21.6-.25.85s-.46.12-.98.24-.45.4-.97.53-.6-.2-1.11-.08-.45.42-.97.55-.55-.02-1.07.11-.52.14-1.04.26-.54.03-1.06.15-.43.49-.95.62-.56-.05-1.08.08-.49.26-1.01.39-.62-.3-1.14-.17-.44.45-.96.57-.49.23-1.01.35-.61-.25-1.13-.13-.53.08-1.05.2-.46.38-.98.5-.58-.13-1.1 0-.45.41-.97.53-.51.17-1.03.29-.53.08-1.05.2-.52.11-1.05.24-.58-.13-1.1 0-.49.24-1.02.36-.5.18-1.02.31-.54.04-1.06.17-.45.41-.98.53-.55.02-1.07.15-.53.36-1.07.3.05-.48-.04-1.14c-.04-.29.03-.65-.03-1.04-.04-.31-.31-.62-.36-.99-.04-.32-.06-.67-.11-1.03-.04-.33-.31-.64-.36-1-.04-.33.35-.73.3-1.09-.04-.33-.3-.65-.35-1s-.02-.69-.07-1.04-.03-.69-.07-1.04-.06-.68-.11-1.03-.02-.69-.06-1.03-.24-.66-.28-1.01.07-.7.03-1.05-.35-.65-.39-1-.03-.69-.07-1.04-.19-.77-.22-1.12c.41 0 .87.1 1.2-.02.36-.13.71-.32.99-.56s.55-.52.78-.82.13-.8.33-1.12.56-.53.75-.84.36-.67.58-.96c.23-.31.67-.55.69-.85.02-.34-.39-.65-.55-.95s-.47-.42-.71-.67c-.24-.26-.39-.57-.64-.74-.44-.3-.91-.6-.98-.53.19-.47.52-.33.72-.8.17-.39-.04-.83-.06-.99-.04-.39.05-.85-.27-1.02-.27-.14-.73-.04-1.1-.09-.34-.05-.7-.03-1.05-.05-.38-.02-.76.03-1.06-.02-.47-.07-.97-.32-.97-.64s.11-.69.14-1.07c.02-.33.17-.67.21-1.04.04-.34.1-.68.15-1.04.05-.34.08-.69.13-1.05.06-.34.34-.65.41-1s-.03-.71.04-1.07.03-.71.11-1.06-.08-.73 0-1.08.22-.67.3-1.02.25-.67.33-1.01.14-.69.22-1.04.52-.6.6-.95-.17-.77-.09-1.12.12-.7.21-1.04.29-.66.38-1 .29-.66.38-1-.06-.75.04-1.09.51-.6.61-.93.22-.68.31-1.02.11-.72.2-1.05c.1-.35.17-.7.26-1.03.1-.35.05-.74.14-1.06.11-.36.35-.66.44-.98.11-.37.39-.65.48-.96.12-.39.11-.77.2-1.05.2-.64.04-.49.39-.88.33-.37.25-.41.63-.73s.44-.25.82-.57.34-.37.72-.69.35-.36.73-.68.23-.56.67-.8c.46-.25-.12.5-.43 1.06-.15.27-.13.67-.3 1.02-.15.3-.75.42-.89.75-.13.32-.23.68-.34 1.02s.1.77.02 1.11-.37.68-.39 1.02c-.02.37.03.75.1 1.09.08.35.26.7.46.99.21.31.52.54.77.79s.51.55.81.74.57.53.92.67.81-.18 1.17-.1c.34.07.65.44 1.03.47.35.03.73-.3 1.1-.3.35 0 .72.28 1.1.25.35-.03.7-.23 1.07-.28.35-.04.69-.22 1.06-.28.31-.05.71.2 1.08.12.32-.07.6-.4.96-.49.32-.08.74.14 1.09.05.33-.09.68-.11 1.03-.21s.53-.64.87-.74.77.17 1.11.06.67-.18 1-.3.54-.56.87-.68.73-.02 1.06-.15.71-.13 1.03-.26.6-.39.92-.52.67-.23.98-.37.61-.37.91-.52c.32-.17.46-.63.75-.8.31-.18.79-.06 1.07-.25.31-.2.67-.33.92-.53.29-.24.51-.53.72-.77.37-.36.42-.3.8-.65s.37-.37.75-.71.19-.56.57-.91.43-.29.82-.64.5-.22.89-.56.44-.28.83-.63.32-.42.7-.76.11-.65.5-1 .56-.16.94-.51.37-.36.76-.72.36-.37.81-.63.35.08 1 .21c.3.06.62.19 1.01.31.32.1.79-.14 1.14.01.31.13.44.68.76.87.3.17.77.09 1.07.31.28.21.35.66.62.92.25.24.76.26.99.54.22.27.26.68.45 1 .18.3.51.53.66.87.14.31-.09.77.03 1.13.11.33.57.57.65.94.07.34-.07.65-.02 1.02z" stroke-width="1.23"/><path d="m54.39 27.54c.33.4.21.37.56.88.17.25.06.73.26 1.05.17.28.42.52.58.84.16.3.29.6.42.93s.31.61.4.93.28.65.32.98c.04.35.12.72.06 1.05s-.2.69-.39.99-.28.64-.45.9c-.21.31-.55.47-.7.73-.2.34-.2.65-.23.92-.03.32.09.42.38.7.19.18.4.32.77.5.26.12.38.66.74.79.28.1.62.15.97.26.29.09.62.18.96.28" stroke-width="1.23"/><path d="m54.39 27.54c.33.4.21.37.56.88.17.25.06.73.26 1.05.17.28.42.52.58.84.16.3.29.6.42.93s.31.61.4.93.28.65.32.98c.04.35.12.72.06 1.05s-.2.69-.39.99-.28.64-.45.9c-.21.31-.55.47-.7.73-.2.34-.2.65-.23.92-.03.32.09.42.38.7.19.18.4.32.77.5.26.12.38.66.74.79.28.1.62.15.97.26.29.09.62.18.96.28" stroke-width="1.23"/><path d="m60.95 40.58c.43-.28.23-.49.71-.8.28-.17.6-.35.9-.53.35-.22.66-.43.87-.56.26-.15.5499.27.6299.85.04.33.2201.75.1901 1.15s-.31.76-.42 1.09c-.13.4-.2801.85-.5501 1.04" stroke-width="1.23"/><path d="m60.95 40.58c.43-.28.23-.49.71-.8.28-.17.6-.35.9-.53.35-.22.66-.43.87-.56.26-.15.5499.27.6299.85.04.33.2201.75.1901 1.15s-.31.76-.42 1.09c-.13.4-.2801.85-.5501 1.04" stroke-width="1.23"/><path d="m63.3 44.72c.24.43-.0199.49.3101.96.17.24.3799.51.5999.79.2.26.4.54.63.77.25.25.48.55.73.71.32.19.74.18 1.03.12.23-.05.6-.17 1-.4.28-.15.5401-.42.8701-.62.29-.18.67-.26.97-.46s.5799-.4.8799-.61.39-.69.68-.89c.3-.22.7101-.26.9801-.46.32-.23.68-.35.93-.54.52-.39.1799-.74.6499-.5s.33.32.71.71.5401.24.9201.64.4.38.78.78.48.3.86.7.0999.66.4799 1.06" stroke-width="1.23"/><path d="m63.3 44.72c.24.43-.0199.49.3101.96.17.24.3799.51.5999.79.2.26.4.54.63.77.25.25.48.55.73.71.32.19.74.18 1.03.12.23-.05.6-.17 1-.4.28-.15.5401-.42.8701-.62.29-.18.67-.26.97-.46s.5799-.4.8799-.61.39-.69.68-.89c.3-.22.7101-.26.9801-.46.32-.23.68-.35.93-.54.52-.39.1799-.74.6499-.5s.33.32.71.71.5401.24.9201.64.4.38.78.78.48.3.86.7.0999.66.4799 1.06" stroke-width="1.23"/><path d="m72.46 35.55c-.35.28.08.24.46-.33.16-.23.47-.45.66-.77.16-.27.09-.7.22-1.01s.41-.57.49-.89.28-.69.27-1.02-.32-.66-.44-.97c-.12-.29-.45-.41-.7-.67-.21-.22-.39-.42-.72-.61-.26-.15-.4-.65-.75-.77-.37-.13-.72-.18-1.02-.32-.35-.18-.79-.16-1.06-.35-.32-.23-.46-.62-.69-.87-.26-.28-.56-.49-.76-.78-.21-.3-.26-.71-.46-1s-.46-.57-.71-.84c-.23-.25-.66-.3-.98-.52-.28-.19-.65-.3-.99-.49s-.57-.55-.87-.71c-.56-.29-.61-.1-.94-.55-.34-.47-.1-.46-.19-1.14-.05-.35-.08-.75-.13-1.16-.04-.38-.36-.76-.39-1.14-.03-.33.09-.66.08-.94-.02-.35-.03-.66-.07-.92-.07-.45-.09-.6-.34-.61-.31 0-.59 0-.8.35-.14.23-.1.57-.17.96-.05.28-.33.58-.35.95-.01.3.35.62.37.98.02.31-.03.63.01.98.04.31-.29.69-.24 1.04.05.31.26.58.33.92-.32.05-.65 0-1.02.07-.33.06-.62.43-.98.5-.34.06-.78.07-1.13.14-.09-.32-.22-.72-.3-1.03-.08-.33.03-.7-.04-1-.08-.34-.21-.65-.27-.95-.08-.36-.13-.69-.18-.97-.11-.6.08-.52-.29-.84-.28-.25-.41-.3-.64-.23-.2.06-.55.41-.65.96-.05.3.37.7.37 1.12 0 .34-.22.7-.17 1.1.04.34-.05.74.02 1.12.07.35.22.65.32 1.02-.37.09-.73-.01-1.06.08-.37.1-.61.57-.93.68-.37.12-.82-.05-1.13.08-.36.16-.61.49-.87.68-.07.05-.33-.31-.42-.9-.04-.29.02-.64-.02-1-.04-.32.05-.66.01-1s-.17-.66-.2-.98c-.03-.36.19-.72.16-1.01-.05-.58-.45-.46-.49-.95-.03-.34-.05-.71-.04-1.05s.43-.66.47-.99.09-.67.16-1-.15-.75-.05-1.08c.1-.34.51-.57.62-.88.12-.34.29-.64.41-.94.14-.35.18-.7.3-.98.14-.31.31-.6.5-.91.18-.29.39-.56.61-.85.21-.27.22-.73.47-.99.23-.25.46-.54.73-.79.25-.23.73-.23 1.01-.46s.44-.56.73-.78.52-.48.82-.68.68-.24.98-.43.57-.41.88-.58.55-.46.87-.62.58-.43.9-.58.72-.12 1.05-.26.65-.26.98-.39.59-.42.93-.55.67-.22 1.01-.34.75.02 1.09-.09.7-.11 1.04-.21.64-.3.99-.39.71-.04 1.06-.13.6-.53.95-.6.72-.02 1.07-.09.74.11 1.09.05.66-.36 1.01-.41c.35-.050003.67-.310003 1.01-.340003.35-.04.72.16 1.06.15.36-.02.7.250003 1.04.250003.36 0 .72-.480003 1.05-.460003.36.02.71.13 1.04.17.35.04.68.250003 1 .320003.35.07.73 0 1.05.08.35.1.65.31.96.43.34.13.58.44.87.58.32.16.7.19.97.37.31.2.5.52.75.72.29.23.7.29.92.52.28.28.5.57.68.8.38.51.35 1.06.35 1.06.43.31.52-.02 1.02.42.22.2.53.42.81.7.23.23.35.61.59.9.22.25.6.41.82.71.2.27.24.69.44 1 .19.29.19.69.36 1.01s.27.63.42.96.41.58.53.92.11.69.2 1.04c.08.32.29.62.35.97.06.33.35.63.4.98.05.33.19.67.22 1.02s-.16.7-.14 1.05-.02.68-.01 1.03.18.68.18 1.03.09.69.07 1.04-.55.65-.58.99-.04.68-.08 1.02-.08.67-.13 1.01-.02.69-.08 1.03-.23.65-.31.98.27.78.18 1.11-.52.57-.62.89-.24.64-.36.96-.13.68-.27 1-.34.6-.49.91-.31.61-.47.91-.14.71-.32 1.01-.45.6-.65.88c-.53.14-.4-.4-1.1-.43-.31-.01-.68.2-1.11.24-.33.03-.67.18-1.06.27-.33.07-.64.28-1.01.41-.33.11-.69.15-1.04.31-.32.14-.64.31-.98.49s-.74.13-1.04.2c-.36.08-.69.09-1.01.04-.35-.05-.71-.08-1-.24-.31-.17-.5-.49-.74-.72-.27-.26-.62-.42-.8-.67-.35-.48-.47-.41-.43-.92.04-.56 0-.49.3-1.1.15-.3.68-.48.83-.86.13-.33-.09-.81.02-1.19.1-.36.55-.65.61-1.02s-.02-.78-.02-1.16-.26-.76-.27-1.11c-.01-.4.08-.77.03-1.11-.06-.4-.11-.76-.26-1.07-.17-.34-.39-.6-.73-.8-.28-.17-.6-.38-1.03-.43-.32-.04-.71-.16-1.14-.14-.4.02-.75.27-1.06.4-.35.15-.45.57-.69.82s-.41.51-.58.83-.37.6-.47.94c-.11.38-.32.71-.37 1.03-.09.63-.49.68-.2 1.14s.55.06 1.05.43c.25.19.5.48.76.76.23.25.6.47.78.79.17.3-.06.77.01 1.13.07.33.1.62.05 1-.04.32-.18.59-.33.95-.13.3.06.79-.16 1.11-.18.27-.56.44-.82.73-.22.25-.6.35-.88.61-.24.23-.49.46-.79.7z" stroke-width="1.23"/><path d="m72.46 35.55c-.35.28.08.24.46-.33.16-.23.47-.45.66-.77.16-.27.09-.7.22-1.01s.41-.57.49-.89.28-.69.27-1.02-.32-.66-.44-.97c-.12-.29-.45-.41-.7-.67-.21-.22-.39-.42-.72-.61-.26-.15-.4-.65-.75-.77-.37-.13-.72-.18-1.02-.32-.35-.18-.79-.16-1.06-.35-.32-.23-.46-.62-.69-.87-.26-.28-.56-.49-.76-.78-.21-.3-.26-.71-.46-1s-.46-.57-.71-.84c-.23-.25-.66-.3-.98-.52-.28-.19-.65-.3-.99-.49s-.57-.55-.87-.71c-.56-.29-.61-.1-.94-.55-.34-.47-.1-.46-.19-1.14-.05-.35-.08-.75-.13-1.16-.04-.38-.36-.76-.39-1.14-.03-.33.09-.66.08-.94-.02-.35-.03-.66-.07-.92-.07-.45-.09-.6-.34-.61-.31 0-.59 0-.8.35-.14.23-.1.57-.17.96-.05.28-.33.58-.35.95-.01.3.35.62.37.98.02.31-.03.63.01.98.04.31-.29.69-.24 1.04.05.31.26.58.33.92-.32.05-.65 0-1.02.07-.33.06-.62.43-.98.5-.34.06-.78.07-1.13.14-.09-.32-.22-.72-.3-1.03-.08-.33.03-.7-.04-1-.08-.34-.21-.65-.27-.95-.08-.36-.13-.69-.18-.97-.11-.6.08-.52-.29-.84-.28-.25-.41-.3-.64-.23-.2.06-.55.41-.65.96-.05.3.37.7.37 1.12 0 .34-.22.7-.17 1.1.04.34-.05.74.02 1.12.07.35.22.65.32 1.02-.37.09-.73-.01-1.06.08-.37.1-.61.57-.93.68-.37.12-.82-.05-1.13.08-.36.16-.61.49-.87.68-.07.05-.33-.31-.42-.9-.04-.29.02-.64-.02-1-.04-.32.05-.66.01-1s-.17-.66-.2-.98c-.03-.36.19-.72.16-1.01-.05-.58-.45-.46-.49-.95-.03-.34-.05-.71-.04-1.05s.43-.66.47-.99.09-.67.16-1-.15-.75-.05-1.08c.1-.34.51-.57.62-.88.12-.34.29-.64.41-.94.14-.35.18-.7.3-.98.14-.31.31-.6.5-.91.18-.29.39-.56.61-.85.21-.27.22-.73.47-.99.23-.25.46-.54.73-.79.25-.23.73-.23 1.01-.46s.44-.56.73-.78.52-.48.82-.68.68-.24.98-.43.57-.41.88-.58.55-.46.87-.62.58-.43.9-.58.72-.12 1.05-.26.65-.26.98-.39.59-.42.93-.55.67-.22 1.01-.34.75.02 1.09-.09.7-.11 1.04-.21.64-.3.99-.39.71-.04 1.06-.13.6-.53.95-.6.72-.02 1.07-.09.74.11 1.09.05.66-.36 1.01-.41c.35-.050003.67-.310003 1.01-.340003.35-.04.72.16 1.06.15.36-.02.7.250003 1.04.250003.36 0 .72-.480003 1.05-.460003.36.02.71.13 1.04.17.35.04.68.250003 1 .320003.35.07.73 0 1.05.08.35.1.65.31.96.43.34.13.58.44.87.58.32.16.7.19.97.37.31.2.5.52.75.72.29.23.7.29.92.52.28.28.5.57.68.8.38.51.35 1.06.35 1.06.43.31.52-.02 1.02.42.22.2.53.42.81.7.23.23.35.61.59.9.22.25.6.41.82.71.2.27.24.69.44 1 .19.29.19.69.36 1.01s.27.63.42.96.41.58.53.92.11.69.2 1.04c.08.32.29.62.35.97.06.33.35.63.4.98.05.33.19.67.22 1.02s-.16.7-.14 1.05-.02.68-.01 1.03.18.68.18 1.03.09.69.07 1.04-.55.65-.58.99-.04.68-.08 1.02-.08.67-.13 1.01-.02.69-.08 1.03-.23.65-.31.98.27.78.18 1.11-.52.57-.62.89-.24.64-.36.96-.13.68-.27 1-.34.6-.49.91-.31.61-.47.91-.14.71-.32 1.01-.45.6-.65.88c-.53.14-.4-.4-1.1-.43-.31-.01-.68.2-1.11.24-.33.03-.67.18-1.06.27-.33.07-.64.28-1.01.41-.33.11-.69.15-1.04.31-.32.14-.64.31-.98.49s-.74.13-1.04.2c-.36.08-.69.09-1.01.04-.35-.05-.71-.08-1-.24-.31-.17-.5-.49-.74-.72-.27-.26-.62-.42-.8-.67-.35-.48-.47-.41-.43-.92.04-.56 0-.49.3-1.1.15-.3.68-.48.83-.86.13-.33-.09-.81.02-1.19.1-.36.55-.65.61-1.02s-.02-.78-.02-1.16-.26-.76-.27-1.11c-.01-.4.08-.77.03-1.11-.06-.4-.11-.76-.26-1.07-.17-.34-.39-.6-.73-.8-.28-.17-.6-.38-1.03-.43-.32-.04-.71-.16-1.14-.14-.4.02-.75.27-1.06.4-.35.15-.45.57-.69.82s-.41.51-.58.83-.37.6-.47.94c-.11.38-.32.71-.37 1.03-.09.63-.49.68-.2 1.14s.55.06 1.05.43c.25.19.5.48.76.76.23.25.6.47.78.79.17.3-.06.77.01 1.13.07.33.1.62.05 1-.04.32-.18.59-.33.95-.13.3.06.79-.16 1.11-.18.27-.56.44-.82.73-.22.25-.6.35-.88.61-.24.23-.49.46-.79.7z" stroke-width="1.23"/><path d="m91.7301 38.54c-.3-.4-.29-.41-.59-.81s-.2-.47-.51-.87-.15-.51-.45-.91-.4-.33-.71-.72-.36-.36-.67-.76-.43-.3-.74-.7-.2-.48-.5-.88" stroke-width="1.23"/><path d="m91.7301 38.54c-.3-.4-.29-.41-.59-.81s-.2-.47-.51-.87-.15-.51-.45-.91-.4-.33-.71-.72-.36-.36-.67-.76-.43-.3-.74-.7-.2-.48-.5-.88" stroke-width="1.23"/><path d="m91.6599 27.55c.34-.43.24-.35.9-.44.31-.04.69-.14 1.1-.16.34-.01.73-.03 1.11 0 .35.02.67.44 1.04.5.35.06.71.07 1.07.18.34.11.81-.06 1.15.1.32.15.46.67.77.88.3.19.73.22 1.01.47.2701.23.3301.68.5801.96.23.26.69.36.91.68.2.29.15.74.33 1.08.15.29.41.53.56.85.14.29.24.62.4.94.15.3.29.61.46.91s.51.49.68.78.39.54.59.82.18.7.4.97.65.31.9.56.35.6.61.82.5.44.79.65c.27.19.68.16.98.34.28.17.47.53.78.68.3.14.57.38.89.51.31.12.63.25.97.36.31.1.63.27.97.36s.7.07 1.04.21.55.46.86.62.63.28.93.48.63.3.92.52.51.48.77.72.79.2 1.04.45.4.6.64.87.57.46.79.74.44.57.64.87.16.75.34 1.06.44.56.62.87.19.7.34 1.02.4.6.53.93.04.74.16 1.07.6.55.7.89-.15.77-.08 1.12.54.62.59.97-.33.75-.31 1.11.37.69.38 1.04.11.73.08 1.08-.25.7-.31 1.05.06.75-.03 1.09-.16.71-.28 1.05-.29.67-.44 1-.54.77-.73 1.08c-.54-.05-.09-.65-.47-1.2-.17-.25-.31-.6-.55-.93-.19-.27-.65-.38-.88-.68-.21-.27-.39-.58-.63-.87-.22-.27-.58-.42-.83-.7s-.15-.83-.41-1.09-.74-.27-1-.52-.58-.41-.86-.65-.5-.51-.78-.73-.38-.7-.68-.9-.72-.22-1.03-.39-.71-.16-1.04-.3-.55-.59-.89-.7-.7-.26-1.06-.31-.74.37-1.1.37-.72-.24-1.07-.26-.7-.21-1.05-.25-.77.26-1.11.2-.72-.13-1.06-.22-.68-.29-1.01-.4-.53-.6-.85-.74-.86.13-1.17-.04-.49-.58-.79-.77-.4901-.53-.7701-.75-.75-.21-1.01-.45-.35-.66-.59-.92-.46-.53-.68-.81-.7-.36-.91-.65-.3-.66-.49-.97-.37-.61-.54-.93-.36-.62-.51-.94 0-.76-.11-1.08-.61-.56-.68-.89 0-.72-.05-1.07.13-.72.11-1.06-.23-.69-.24-1.04-.19-.7-.19-1.05.34-.7.33-1.05-.1-.7-.13-1.04-.14-.69-.19-1.03-.08-.69-.19-1.02-.45-.53-.62-.84-.19-.66-.43-.93c-.22-.25-.49-.45-.78-.67-.26-.2-.61-.25-.93-.44-.29-.16-.6-.53-.94-.68 0-.47.28-.44.46-.87s.24-.41.42-.84-.02-.52.18-.95.35-.32.64-.69z" stroke-width="1.23"/><path d="m91.6599 27.55c.34-.43.24-.35.9-.44.31-.04.69-.14 1.1-.16.34-.01.73-.03 1.11 0 .35.02.67.44 1.04.5.35.06.71.07 1.07.18.34.11.81-.06 1.15.1.32.15.46.67.77.88.3.19.73.22 1.01.47.2701.23.3301.68.5801.96.23.26.69.36.91.68.2.29.15.74.33 1.08.15.29.41.53.56.85.14.29.24.62.4.94.15.3.29.61.46.91s.51.49.68.78.39.54.59.82.18.7.4.97.65.31.9.56.35.6.61.82.5.44.79.65c.27.19.68.16.98.34.28.17.47.53.78.68.3.14.57.38.89.51.31.12.63.25.97.36.31.1.63.27.97.36s.7.07 1.04.21.55.46.86.62.63.28.93.48.63.3.92.52.51.48.77.72.79.2 1.04.45.4.6.64.87.57.46.79.74.44.57.64.87.16.75.34 1.06.44.56.62.87.19.7.34 1.02.4.6.53.93.04.74.16 1.07.6.55.7.89-.15.77-.08 1.12.54.62.59.97-.33.75-.31 1.11.37.69.38 1.04.11.73.08 1.08-.25.7-.31 1.05.06.75-.03 1.09-.16.71-.28 1.05-.29.67-.44 1-.54.77-.73 1.08c-.54-.05-.09-.65-.47-1.2-.17-.25-.31-.6-.55-.93-.19-.27-.65-.38-.88-.68-.21-.27-.39-.58-.63-.87-.22-.27-.58-.42-.83-.7s-.15-.83-.41-1.09-.74-.27-1-.52-.58-.41-.86-.65-.5-.51-.78-.73-.38-.7-.68-.9-.72-.22-1.03-.39-.71-.16-1.04-.3-.55-.59-.89-.7-.7-.26-1.06-.31-.74.37-1.1.37-.72-.24-1.07-.26-.7-.21-1.05-.25-.77.26-1.11.2-.72-.13-1.06-.22-.68-.29-1.01-.4-.53-.6-.85-.74-.86.13-1.17-.04-.49-.58-.79-.77-.4901-.53-.7701-.75-.75-.21-1.01-.45-.35-.66-.59-.92-.46-.53-.68-.81-.7-.36-.91-.65-.3-.66-.49-.97-.37-.61-.54-.93-.36-.62-.51-.94 0-.76-.11-1.08-.61-.56-.68-.89 0-.72-.05-1.07.13-.72.11-1.06-.23-.69-.24-1.04-.19-.7-.19-1.05.34-.7.33-1.05-.1-.7-.13-1.04-.14-.69-.19-1.03-.08-.69-.19-1.02-.45-.53-.62-.84-.19-.66-.43-.93c-.22-.25-.49-.45-.78-.67-.26-.2-.61-.25-.93-.44-.29-.16-.6-.53-.94-.68 0-.47.28-.44.46-.87s.24-.41.42-.84-.02-.52.18-.95.35-.32.64-.69z" stroke-width="1.23"/><path d="m79.38 49.47c.5-.17.33-.22.97-.45.28-.1.66-.12 1.04-.26.31-.11.69-.12 1.05-.25.31-.12.49-.64.84-.77.32-.13.76.02 1.1-.12.32-.13.7-.16 1.03-.3s.62-.35.95-.5.64-.29.97-.44.63-.32.96-.48.55-.49.87-.65.59-.4.91-.57.69-.22 1-.4.54-.49.85-.67.74-.16 1.04-.35.56-.45.86-.65.61-.38.89-.59.49-.53.76-.75c.28-.24.56-.45.81-.69" stroke-width="1.23"/><path d="m79.38 49.47c.5-.17.33-.22.97-.45.28-.1.66-.12 1.04-.26.31-.11.69-.12 1.05-.25.31-.12.49-.64.84-.77.32-.13.76.02 1.1-.12.32-.13.7-.16 1.03-.3s.62-.35.95-.5.64-.29.97-.44.63-.32.96-.48.55-.49.87-.65.59-.4.91-.57.69-.22 1-.4.54-.49.85-.67.74-.16 1.04-.35.56-.45.86-.65.61-.38.89-.59.49-.53.76-.75c.28-.24.56-.45.81-.69" stroke-width="1.23"/><path d="m77.38 53.88c.5-.14.32-.26.96-.46.28-.09.53-.49.91-.61.31-.1.69-.06 1.04-.17.31-.1.69-.1 1.04-.22.32-.11.55-.5.9-.62.32-.11.65-.23.99-.35s.78.12 1.12 0 .63-.3.96-.43.65-.26.97-.39.62-.34.94-.48.61-.35.93-.49.73-.1 1.05-.24.69-.19 1.01-.35.57-.44.88-.6.57-.45.87-.61.59-.38.89-.56.72-.18 1.01-.37.41-.66.69-.86c.29-.21.69-.26.95-.48.28-.23.44-.57.68-.8" stroke-width="1.23"/><path d="m77.38 53.88c.5-.14.32-.26.96-.46.28-.09.53-.49.91-.61.31-.1.69-.06 1.04-.17.31-.1.69-.1 1.04-.22.32-.11.55-.5.9-.62.32-.11.65-.23.99-.35s.78.12 1.12 0 .63-.3.96-.43.65-.26.97-.39.62-.34.94-.48.61-.35.93-.49.73-.1 1.05-.24.69-.19 1.01-.35.57-.44.88-.6.57-.45.87-.61.59-.38.89-.56.72-.18 1.01-.37.41-.66.69-.86c.29-.21.69-.26.95-.48.28-.23.44-.57.68-.8" stroke-width="1.23"/><path d="m68.19 110.7c-.53.11-.51.18-1.04.29s-.52.11-1.05.22-.46.4-.99.51-.6-.24-1.12-.13-.53.07-1.06.18-.51.17-1.04.28-.43.56-.96.67-.68-.38-1.17-.14c-.06.32.02.78-.01 1.13s.04.67.03 1.01-.16.67-.15 1.01.25.66.29 1-.34.72-.29 1.06.49.62.54.95-.16.73-.1 1.05.14.68.21 1c.08.34.48.59.56.91.09.35.17.68.26.98.11.37.1.73.19 1.01.19.6-.26.81.23.94s.51.27 1.01.24.48-.48.99-.5.52.12 1.02.1.51.06 1.02.04.5-.2 1.01-.22.51-.02 1.02-.04" stroke-width="1.23"/><path d="m68.19 110.7c-.53.11-.51.18-1.04.29s-.52.11-1.05.22-.46.4-.99.51-.6-.24-1.12-.13-.53.07-1.06.18-.51.17-1.04.28-.43.56-.96.67-.68-.38-1.17-.14c-.06.32.02.78-.01 1.13s.04.67.03 1.01-.16.67-.15 1.01.25.66.29 1-.34.72-.29 1.06.49.62.54.95-.16.73-.1 1.05.14.68.21 1c.08.34.48.59.56.91.09.35.17.68.26.98.11.37.1.73.19 1.01.19.6-.26.81.23.94s.51.27 1.01.24.48-.48.99-.5.52.12 1.02.1.51.06 1.02.04.5-.2 1.01-.22.51-.02 1.02-.04" stroke-width="1.23"/><path d="m116.54 58.54c.52-.05.4.02 1.04.08.3.03.64.07 1.03.15.32.06.7-.02 1.06.1.31.1.62.3.95.46.3.14.67.23.98.42.29.18.52.47.8.69.26.21.32.65.57.9.24.24.6.36.83.64.21.26.3.61.5.91.18.28.48.5.65.82.15.3.51.52.65.86.13.31.17.68.28 1.02.11.32.14.68.23 1.03.09.33.12.67.19 1.03.07.33.29.65.34 1 .05.34.11.69.15 1.04.03.34-.32.72-.29 1.07.02.34.17.68.17 1.03s.34.69.33 1.05-.15.7-.16 1.05c-.01.29-.32.63-.36 1.04-.03.32.17.69.13 1.08-.04.33-.13.68-.18 1.05-.05.34-.08.69-.14 1.05-.06.34.08.73.01 1.09-.06.34-.56.6-.64.96s.25.78.16 1.13-.26.66-.36 1.01-.17.69-.27 1.03-.38.62-.49.96-.34.63-.46.97.01.76-.12 1.09-.23.68-.37 1-.39.61-.54.93-.41.61-.54.93c-.14.34-.36.64-.48.96-.12.34-.2.7-.29 1.03s.04.75-.05 1.09-.03.72-.1 1.06-.53.61-.6.95.25.77.17 1.12-.59.58-.68.93-.04.7-.14 1.05c-.1.33.13.77.01 1.12-.11.32-.48.57-.61.91-.12.32-.25.65-.4.98-.14.31-.12.71-.28 1.04-.15.31-.24.67-.41.99-.16.3-.6.47-.78.78-.17.3-.43.55-.62.86-.18.29-.36.59-.56.9-.18.29-.06.79-.26 1.09-.19.29-.56.47-.77.77-.2.28-.48.51-.7.81s-.15.76-.37 1.05-.77.3-1 .58-.46.53-.69.82" stroke-width="1.23"/><path d="m116.54 58.54c.52-.05.4.02 1.04.08.3.03.64.07 1.03.15.32.06.7-.02 1.06.1.31.1.62.3.95.46.3.14.67.23.98.42.29.18.52.47.8.69.26.21.32.65.57.9.24.24.6.36.83.64.21.26.3.61.5.91.18.28.48.5.65.82.15.3.51.52.65.86.13.31.17.68.28 1.02.11.32.14.68.23 1.03.09.33.12.67.19 1.03.07.33.29.65.34 1 .05.34.11.69.15 1.04.03.34-.32.72-.29 1.07.02.34.17.68.17 1.03s.34.69.33 1.05-.15.7-.16 1.05c-.01.29-.32.63-.36 1.04-.03.32.17.69.13 1.08-.04.33-.13.68-.18 1.05-.05.34-.08.69-.14 1.05-.06.34.08.73.01 1.09-.06.34-.56.6-.64.96s.25.78.16 1.13-.26.66-.36 1.01-.17.69-.27 1.03-.38.62-.49.96-.34.63-.46.97.01.76-.12 1.09-.23.68-.37 1-.39.61-.54.93-.41.61-.54.93c-.14.34-.36.64-.48.96-.12.34-.2.7-.29 1.03s.04.75-.05 1.09-.03.72-.1 1.06-.53.61-.6.95.25.77.17 1.12-.59.58-.68.93-.04.7-.14 1.05c-.1.33.13.77.01 1.12-.11.32-.48.57-.61.91-.12.32-.25.65-.4.98-.14.31-.12.71-.28 1.04-.15.31-.24.67-.41.99-.16.3-.6.47-.78.78-.17.3-.43.55-.62.86-.18.29-.36.59-.56.9-.18.29-.06.79-.26 1.09-.19.29-.56.47-.77.77-.2.28-.48.51-.7.81s-.15.76-.37 1.05-.77.3-1 .58-.46.53-.69.82" stroke-width="1.23"/><path d="m121.25 96.05c.01.53-.31.4-.29 1.07 0 .3.05.66.06 1.06 0 .33.33.68.34 1.06 0 .33-.26.7-.25 1.07 0 .34.27.69.28 1.06 0 .35-.25.71-.25 1.07s.07.7.08 1.07.13.7.14 1.06-.2.71-.19 1.07.02.71.03 1.07-.02.71-.01 1.07.37.71.38 1.07-.23.72-.23 1.08-.02.72 0 1.07-.18.72-.17 1.08.49.71.5 1.06c0 .37-.44.73-.44 1.08" stroke-width="1.23"/><path d="m121.25 96.05c.01.53-.31.4-.29 1.07 0 .3.05.66.06 1.06 0 .33.33.68.34 1.06 0 .33-.26.7-.25 1.07 0 .34.27.69.28 1.06 0 .35-.25.71-.25 1.07s.07.7.08 1.07.13.7.14 1.06-.2.71-.19 1.07.02.71.03 1.07-.02.71-.01 1.07.37.71.38 1.07-.23.72-.23 1.08-.02.72 0 1.07-.18.72-.17 1.08.49.71.5 1.06c0 .37-.44.73-.44 1.08" stroke-width="1.23"/><path d="m126.93 148.77c.02-.36.27-.7.29-1.06s.17-.71.18-1.07.04-.72.06-1.07.06-.72.07-1.08-.33-.73-.32-1.08-.08-.72-.08-1.08.47-.72.47-1.08-.31-.72-.31-1.08.07-.72.06-1.08.17-.73.15-1.08-.51-.7-.53-1.06.33-.74.31-1.09-.37-.7-.39-1.05-.06-.72-.08-1.07.45-.75.42-1.11-.16-.71-.19-1.06-.22-.7-.25-1.05-.32-.69-.35-1.04c-.04-.36.36-.76.33-1.11-.04-.37-.45-.68-.49-1.02-.04-.37.04-.74 0-1.08-.05-.37-.05-.73-.1-1.06-.05-.37.14-.76.09-1.09-.05-.38-.19-.72-.24-1.04-.06-.41 0-.78-.05-1.07-.11-.68-.14-.55-.48-.96-.32-.1-.69-.04-1.01-.18s-.47-.6-.78-.76-.69-.17-.98-.36-.54-.42-.83-.62-.64-.3-.91-.51-.29-.74-.55-.96-.64-.31-.89-.54-.51-.47-.75-.7-.61-.37-.85-.61-.38-.6-.61-.85-.46-.53-.68-.77c-.24-.26-.36-.62-.57-.87-.24-.27-.51-.49-.72-.74-.24-.28-.46-.55-.66-.8-.25-.3-.52-.52-.7-.75-.39-.51-.17-.94-.68-.92-.55.02-.31.42-.75.95-.2.24-.41.54-.68.85-.22.26-.5.5-.75.8-.23.26-.33.66-.59.94-.24.26-.7.33-.96.6s-.44.58-.7.84-.57.45-.84.71-.22.84-.5 1.08-.88.11-1.16.35-.41.66-.7.88c-.24.18-.63.16-.99.34-.28.14-.42.69-.78.82-.3.12-.77-.15-1.12-.03-.32.1-.59.38-.94.48-.32.09-.62.36-.97.45-.33.08-.7.06-1.04.14-.33.08-.71 0-1.05.08s-.63.39-.97.46-.69.06-1.04.13-.71 0-1.05.06-.66.27-1 .33-.73-.17-1.08-.11-.66.26-1.01.32-.71-.05-1.05 0-.63.47-.98.52-.69.09-1.04.14-.74-.27-1.09-.22-.69.11-1.04.16-.65.44-.99.48-.74-.26-1.08-.22-.64.52-.99.56-.72-.13-1.07-.09-.7.08-1.04.12-.7.04-1.05.08-.71-.05-1.06-.01-.67.36-1.01.39-.72-.12-1.06-.08-.69.18-1.03.22-.7.09-1.04.12-.72-.14-1.06-.11c-.36.03-.68.35-1.02.38-.36.03-.74-.33-1.08-.3-.36.03-.69.31-1.02.34-.37.03-.72 0-1.05.02-.38.03-.72.16-1.03.18-.4.03-.74.27-1.03.29-.66.05-.94-.17-.94-.17-.04.52-.21.51-.26 1.03s.27.55.23 1.07-.33.5-.38 1.02-.22.51-.26 1.03.4.56.35 1.08-.05.52-.09 1.04-.25.5-.29 1.03-.14.51-.18 1.03-.19.51-.24 1.03.18.54.14 1.06-.21.51-.26 1.03.33.55.28 1.07-.38.49-.42 1.01-.07.52-.12 1.04-.15.51-.19 1.03.08.53.03 1.05.1.54.05 1.06-.3.5-.35 1.02.09.53.04 1.06.3.55.25 1.07-.09.52-.13 1.04 0 .53-.05 1.05-.35.5-.39 1.03-.1.54.03 1.05.31.2.98.31c.29.05.66-.04 1.06.03.31.05.63.28 1.01.34.32.05.7-.08 1.07-.02.33.05.62.41.98.47.33.05.68.08 1.04.14.33.05.7 0 1.05.06.34.05.7 0 1.05.05s.67.18 1.03.24.72-.13 1.07-.08.63.48.98.53.71-.02 1.06.03.74-.26 1.09-.21.63.5.99.54.72-.16 1.07-.12.7-.02 1.05.03.64.49.99.53.73-.22 1.08-.18.7.03 1.05.07.7.04 1.04.08.65.43 1 .47.7.05 1.04.09.7.06 1.04.1.73-.25 1.08-.21.68.23 1.03.27.67.33 1.02.36.73-.29 1.08-.26.7.09 1.05.12.71-.05 1.06-.03.7.02 1.05.05.68.44 1.03.46.72-.27 1.07-.25.69.28 1.04.3.7.11 1.05.13.72-.38 1.07-.37.69.48 1.04.49.71-.14 1.05-.14.7-.19 1.05-.19.71-.04 1.05-.05.7 0 1.05-.02.71.35 1.06.34.69-.29 1.04-.31.69-.19 1.03-.22.71.05 1.05.01c.36-.04.7-.17 1.04-.2s.72.05 1.06 0c.36-.04.69-.2 1.03-.25.36-.05.73.12 1.07.07.36-.05.72-.01 1.06-.07.36-.06.69-.19 1.03-.25.36-.06.71-.11 1.04-.17.36-.07.69-.21 1.02-.28.36-.08.71-.11 1.04-.19.36-.09.71-.15 1.03-.24.36-.1.7-.19 1.01-.29.36-.11.68-.26.99-.38.36-.14.69-.27.97-.4.37-.17.78-.17 1.04-.33.37-.22.61-.53.81-.72.56-.51.28-.42.3-.94z" stroke-width="1.23"/><path d="m126.93 148.77c.02-.36.27-.7.29-1.06s.17-.71.18-1.07.04-.72.06-1.07.06-.72.07-1.08-.33-.73-.32-1.08-.08-.72-.08-1.08.47-.72.47-1.08-.31-.72-.31-1.08.07-.72.06-1.08.17-.73.15-1.08-.51-.7-.53-1.06.33-.74.31-1.09-.37-.7-.39-1.05-.06-.72-.08-1.07.45-.75.42-1.11-.16-.71-.19-1.06-.22-.7-.25-1.05-.32-.69-.35-1.04c-.04-.36.36-.76.33-1.11-.04-.37-.45-.68-.49-1.02-.04-.37.04-.74 0-1.08-.05-.37-.05-.73-.1-1.06-.05-.37.14-.76.09-1.09-.05-.38-.19-.72-.24-1.04-.06-.41 0-.78-.05-1.07-.11-.68-.14-.55-.48-.96-.32-.1-.69-.04-1.01-.18s-.47-.6-.78-.76-.69-.17-.98-.36-.54-.42-.83-.62-.64-.3-.91-.51-.29-.74-.55-.96-.64-.31-.89-.54-.51-.47-.75-.7-.61-.37-.85-.61-.38-.6-.61-.85-.46-.53-.68-.77c-.24-.26-.36-.62-.57-.87-.24-.27-.51-.49-.72-.74-.24-.28-.46-.55-.66-.8-.25-.3-.52-.52-.7-.75-.39-.51-.17-.94-.68-.92-.55.02-.31.42-.75.95-.2.24-.41.54-.68.85-.22.26-.5.5-.75.8-.23.26-.33.66-.59.94-.24.26-.7.33-.96.6s-.44.58-.7.84-.57.45-.84.71-.22.84-.5 1.08-.88.11-1.16.35-.41.66-.7.88c-.24.18-.63.16-.99.34-.28.14-.42.69-.78.82-.3.12-.77-.15-1.12-.03-.32.1-.59.38-.94.48-.32.09-.62.36-.97.45-.33.08-.7.06-1.04.14-.33.08-.71 0-1.05.08s-.63.39-.97.46-.69.06-1.04.13-.71 0-1.05.06-.66.27-1 .33-.73-.17-1.08-.11-.66.26-1.01.32-.71-.05-1.05 0-.63.47-.98.52-.69.09-1.04.14-.74-.27-1.09-.22-.69.11-1.04.16-.65.44-.99.48-.74-.26-1.08-.22-.64.52-.99.56-.72-.13-1.07-.09-.7.08-1.04.12-.7.04-1.05.08-.71-.05-1.06-.01-.67.36-1.01.39-.72-.12-1.06-.08-.69.18-1.03.22-.7.09-1.04.12-.72-.14-1.06-.11c-.36.03-.68.35-1.02.38-.36.03-.74-.33-1.08-.3-.36.03-.69.31-1.02.34-.37.03-.72 0-1.05.02-.38.03-.72.16-1.03.18-.4.03-.74.27-1.03.29-.66.05-.94-.17-.94-.17-.04.52-.21.51-.26 1.03s.27.55.23 1.07-.33.5-.38 1.02-.22.51-.26 1.03.4.56.35 1.08-.05.52-.09 1.04-.25.5-.29 1.03-.14.51-.18 1.03-.19.51-.24 1.03.18.54.14 1.06-.21.51-.26 1.03.33.55.28 1.07-.38.49-.42 1.01-.07.52-.12 1.04-.15.51-.19 1.03.08.53.03 1.05.1.54.05 1.06-.3.5-.35 1.02.09.53.04 1.06.3.55.25 1.07-.09.52-.13 1.04 0 .53-.05 1.05-.35.5-.39 1.03-.1.54.03 1.05.31.2.98.31c.29.05.66-.04 1.06.03.31.05.63.28 1.01.34.32.05.7-.08 1.07-.02.33.05.62.41.98.47.33.05.68.08 1.04.14.33.05.7 0 1.05.06.34.05.7 0 1.05.05s.67.18 1.03.24.72-.13 1.07-.08.63.48.98.53.71-.02 1.06.03.74-.26 1.09-.21.63.5.99.54.72-.16 1.07-.12.7-.02 1.05.03.64.49.99.53.73-.22 1.08-.18.7.03 1.05.07.7.04 1.04.08.65.43 1 .47.7.05 1.04.09.7.06 1.04.1.73-.25 1.08-.21.68.23 1.03.27.67.33 1.02.36.73-.29 1.08-.26.7.09 1.05.12.71-.05 1.06-.03.7.02 1.05.05.68.44 1.03.46.72-.27 1.07-.25.69.28 1.04.3.7.11 1.05.13.72-.38 1.07-.37.69.48 1.04.49.71-.14 1.05-.14.7-.19 1.05-.19.71-.04 1.05-.05.7 0 1.05-.02.71.35 1.06.34.69-.29 1.04-.31.69-.19 1.03-.22.71.05 1.05.01c.36-.04.7-.17 1.04-.2s.72.05 1.06 0c.36-.04.69-.2 1.03-.25.36-.05.73.12 1.07.07.36-.05.72-.01 1.06-.07.36-.06.69-.19 1.03-.25.36-.06.71-.11 1.04-.17.36-.07.69-.21 1.02-.28.36-.08.71-.11 1.04-.19.36-.09.71-.15 1.03-.24.36-.1.7-.19 1.01-.29.36-.11.68-.26.99-.38.36-.14.69-.27.97-.4.37-.17.78-.17 1.04-.33.37-.22.61-.53.81-.72.56-.51.28-.42.3-.94z" stroke-width="1.23"/><path d="m50 60.56c.4 0-.15-.1.04.68.05.2.36.4.44.72.09.35.41.62.84.85s1.08.41 1.13.79c.05.41-.58.64-.88.95s-.29.75-.29 1.13c0 .22-.42.59-.42 1.03 0 .31.38.68.34 1.04s-.07.76-.14 1.1c-.08.37-.37.67-.49 1-.13.35-.27.68-.46.98s-.24.76-.5 1.01-.71.28-1.02.49c-.28.19-.47.63-.81.79-.31.15-.78-.01-1.13.12-.32.12-.65.25-1.02.36-.33.1-.64.33-1.01.43-.34.09-.75-.08-1.11 0" stroke-width="1.23"/><path d="m50 60.56c.4 0-.15-.1.04.68.05.2.36.4.44.72.09.35.41.62.84.85s1.08.41 1.13.79c.05.41-.58.64-.88.95s-.29.75-.29 1.13c0 .22-.42.59-.42 1.03 0 .31.38.68.34 1.04s-.07.76-.14 1.1c-.08.37-.37.67-.49 1-.13.35-.27.68-.46.98s-.24.76-.5 1.01-.71.28-1.02.49c-.28.19-.47.63-.81.79-.31.15-.78-.01-1.13.12-.32.12-.65.25-1.02.36-.33.1-.64.33-1.01.43-.34.09-.75-.08-1.11 0" stroke-width="1.23"/><path d="m40.4301 44.79c.5.1.33.28.95.47.28.09.61.18.97.32.3.11.71.02 1.05.17.3.14.41.69.72.86.29.16.78-.02 1.09.17.28.18.38.65.66.86s.64.27.91.5.5.46.75.7.61.37.84.63.39.57.6.85.23.66.42.96.61.44.78.75c.18.35 0 .81.12 1.13.13.37.36.66.42 1 .06.39-.11.72-.13 1.07-.02.39 0 .71-.11 1.04-.11.36-.12.73-.3 1.03-.2.33-.38.65-.61.91-.27.3-.6.5-.85.69-.51.39-.31.59-.8.82" stroke-width="1.23"/><path d="m40.4301 44.79c.5.1.33.28.95.47.28.09.61.18.97.32.3.11.71.02 1.05.17.3.14.41.69.72.86.29.16.78-.02 1.09.17.28.18.38.65.66.86s.64.27.91.5.5.46.75.7.61.37.84.63.39.57.6.85.23.66.42.96.61.44.78.75c.18.35 0 .81.12 1.13.13.37.36.66.42 1 .06.39-.11.72-.13 1.07-.02.39 0 .71-.11 1.04-.11.36-.12.73-.3 1.03-.2.33-.38.65-.61.91-.27.3-.6.5-.85.69-.51.39-.31.59-.8.82" stroke-width="1.23"/><path d="m42.2299 57.17c.15.49.22.37.14.99-.04.29.11.73-.06 1.09-.13.28-.39.58-.64.87-.2.24-.6.34-.89.58-.24.2-.44.53-.76.72-.28.16-.74 0-1.08.16" stroke-width="1.23"/><path d="m42.2299 57.17c.15.49.22.37.14.99-.04.29.11.73-.06 1.09-.13.28-.39.58-.64.87-.2.24-.6.34-.89.58-.24.2-.44.53-.76.72-.28.16-.74 0-1.08.16" stroke-width="1.23"/><path d="m48.72 67.15c-.31.38-.17.35-.73.59-.25.11-.52.45-.9.51-.29.04-.65-.01-1.02-.03-.3-.02-.6-.27-.96-.35" stroke-width="1.23"/><path d="m48.72 67.15c-.31.38-.17.35-.73.59-.25.11-.52.45-.9.51-.29.04-.65-.01-1.02-.03-.3-.02-.6-.27-.96-.35" stroke-width="1.23"/><path d="m47.36 55.21c.15.49-.08.49-.16 1.11-.04.29.04.72-.12 1.08-.13.28-.47.51-.72.8-.2.24-.44.49-.74.73-.24.2-.59.3-.91.49-.28.16-.47.55-.81.71" stroke-width="1.23"/><path d="m47.36 55.21c.15.49-.08.49-.16 1.11-.04.29.04.72-.12 1.08-.13.28-.47.51-.72.8-.2.24-.44.49-.74.73-.24.2-.59.3-.91.49-.28.16-.47.55-.81.71" stroke-width="1.23"/><path d="m37.13 60.13c.19.47.28.34.3.94 0 .3-.17.6-.26.97-.08.3.05.71-.13 1.03-.15.27-.35.57-.6.85-.21.23-.61.3-.91.52-.25.19-.41.57-.73.75-.28.16-.64.21-.97.36" stroke-width="1.23"/><path d="m37.13 60.13c.19.47.28.34.3.94 0 .3-.17.6-.26.97-.08.3.05.71-.13 1.03-.15.27-.35.57-.6.85-.21.23-.61.3-.91.52-.25.19-.41.57-.73.75-.28.16-.64.21-.97.36" stroke-width="1.23"/><path d="m35.23 65.56c-.55-.18-.57.01-1.21-.04-.36-.03-.72.24-1.11.33s-.88-.07-1.16.22c-.24.25-.24.69-.33 1.14-.08.38-.22.71-.14 1.01.08.35.34.61.55.87s.49.47.77.65c.3.2.6.39.88.51.54.22.45.26.95.36" stroke-width="1.23"/><path d="m35.23 65.56c-.55-.18-.57.01-1.21-.04-.36-.03-.72.24-1.11.33s-.88-.07-1.16.22c-.24.25-.24.69-.33 1.14-.08.38-.22.71-.14 1.01.08.35.34.61.55.87s.49.47.77.65c.3.2.6.39.88.51.54.22.45.26.95.36" stroke-width="1.23"/><path d="m38.04 44.49c-.54-.09-.38.07-1.08.06-.31 0-.67-.17-1.09-.14-.33.03-.68.12-1.08.18-.34.05-.73-.06-1.11.03-.34.08-.61.46-.97.58-.34.1-.77-.05-1.13.08-.33.13-.55.55-.89.71-.32.15-.82-.02-1.15.16-.31.17-.56.48-.89.68-.3.19-.53.5-.84.72-.28.2-.57.38-.84.6s-.44.54-.7.77-.66.3-.9.55-.43.55-.66.81-.71.32-.92.59-.14.76-.34 1.05-.43.54-.61.84-.43.55-.59.86-.46.56-.6.88-.24.67-.35 1 .03.74-.05 1.08-.2.66-.26 1.01 0 .69-.03 1.04-.15.68-.15 1.03-.16.71-.13 1.05.16.69.21 1.03.06.7.15 1.04.29.64.4.98.33.61.47.93.08.73.24 1.04.47.53.65.84" stroke-width="1.23"/><path d="m38.04 44.49c-.54-.09-.38.07-1.08.06-.31 0-.67-.17-1.09-.14-.33.03-.68.12-1.08.18-.34.05-.73-.06-1.11.03-.34.08-.61.46-.97.58-.34.1-.77-.05-1.13.08-.33.13-.55.55-.89.71-.32.15-.82-.02-1.15.16-.31.17-.56.48-.89.68-.3.19-.53.5-.84.72-.28.2-.57.38-.84.6s-.44.54-.7.77-.66.3-.9.55-.43.55-.66.81-.71.32-.92.59-.14.76-.34 1.05-.43.54-.61.84-.43.55-.59.86-.46.56-.6.88-.24.67-.35 1 .03.74-.05 1.08-.2.66-.26 1.01 0 .69-.03 1.04-.15.68-.15 1.03-.16.71-.13 1.05.16.69.21 1.03.06.7.15 1.04.29.64.4.98.33.61.47.93.08.73.24 1.04.47.53.65.84" stroke-width="1.23"/><path d="m26.2 71.34c.43.29.24.44.83.7.27.12.68.07 1.06.19.31.09.67.08 1.03.15.32.06.67-.04 1.04-.01.33.02.65-.04 1.02-.06.33-.02.7499-.04 1.0999-.1.45.12.22.47.41.98.09.24.4101.53.4001.89 0 .27-.0201.65-.1301.98-.09.26-.3599.52-.5299.82" stroke-width="1.23"/><path d="m26.2 71.34c.43.29.24.44.83.7.27.12.68.07 1.06.19.31.09.67.08 1.03.15.32.06.67-.04 1.04-.01.33.02.65-.04 1.02-.06.33-.02.7499-.04 1.0999-.1.45.12.22.47.41.98.09.24.4101.53.4001.89 0 .27-.0201.65-.1301.98-.09.26-.3599.52-.5299.82" stroke-width="1.23"/><path d="m30.74 76.99c.28-.2.47-.55.76-.71s.76.03 1.08-.1.55-.44.88-.54.64-.25.97-.32.71.11 1.04.07.65-.32.99-.34.68-.17 1.02-.17.69.17 1.02.18.69.06 1.02.08c.35.03.71-.15 1.04-.11.35.04.65.37.97.42.36.06.69.12 1 .18.38.08.7.19.99.25.61.15.53-.03 1.01.11s.27.36.9.57c.28.09.6.21.97.34.3.1.7 0 1.05.12.3.11.61.27.95.41.31.12.56.42.89.56.31.13.76-.05 1.09.09.31.13.6.33.92.48s.62.28.94.44.66.22.97.37.49.55.8.71.75.07 1.05.24.58.38.88.55.56.41.86.59.52.47.81.66.62.32.91.51.68.24.96.44" stroke-width="1.23"/><path d="m30.74 76.99c.28-.2.47-.55.76-.71s.76.03 1.08-.1.55-.44.88-.54.64-.25.97-.32.71.11 1.04.07.65-.32.99-.34.68-.17 1.02-.17.69.17 1.02.18.69.06 1.02.08c.35.03.71-.15 1.04-.11.35.04.65.37.97.42.36.06.69.12 1 .18.38.08.7.19.99.25.61.15.53-.03 1.01.11s.27.36.9.57c.28.09.6.21.97.34.3.1.7 0 1.05.12.3.11.61.27.95.41.31.12.56.42.89.56.31.13.76-.05 1.09.09.31.13.6.33.92.48s.62.28.94.44.66.22.97.37.49.55.8.71.75.07 1.05.24.58.38.88.55.56.41.86.59.52.47.81.66.62.32.91.51.68.24.96.44" stroke-width="1.23"/><path d="m59.75 85.52c-.02.52.27.45.19 1.06-.04.31-.13.67-.21 1.04-.08.33-.5.57-.62.9s.03.78-.15 1.07c-.19.31-.45.63-.71.84-.51.19-.44.05-1.11.09-.31.02-.68-.11-1.09-.09-.34.02-.7-.08-1.09-.07-.35 0-.71.15-1.08.15-.35 0-.72.25-1.09.24s-.71-.34-1.08-.36-.73.05-1.09.02-.73-.08-1.08-.12c-.37-.05-.72-.15-1.06-.22-.37-.07-.69-.25-1.02-.35-.37-.11-.65-.3-.94-.45" stroke-width="1.23"/><path d="m59.75 85.52c-.02.52.27.45.19 1.06-.04.31-.13.67-.21 1.04-.08.33-.5.57-.62.9s.03.78-.15 1.07c-.19.31-.45.63-.71.84-.51.19-.44.05-1.11.09-.31.02-.68-.11-1.09-.09-.34.02-.7-.08-1.09-.07-.35 0-.71.15-1.08.15-.35 0-.72.25-1.09.24s-.71-.34-1.08-.36-.73.05-1.09.02-.73-.08-1.08-.12c-.37-.05-.72-.15-1.06-.22-.37-.07-.69-.25-1.02-.35-.37-.11-.65-.3-.94-.45" stroke-width="1.23"/><path d="m29.57 78.43c-.21.49-.31.29-.55.93-.1.28-.03.68-.16 1.06-.1.3 0 .71-.11 1.07-.1.32-.26.63-.37.99-.09.33-.28.64-.37.99-.09.33-.49.6-.57.95-.08.33.04.73-.03 1.08s-.14.69-.2 1.04.03.71-.02 1.07-.05.7-.1 1.05-.39.66-.43 1.02-.12.7-.15 1.06.16.72.15 1.07-.3.7-.3 1.06.15.71.16 1.06.21.7.23 1.05-.08.71-.04 1.07.09.7.14 1.05 0 .72.06 1.07.27.67.35 1.01.11.7.21 1.04.39.62.5.96.03.74.16 1.07.51.55.66.87.08.75.24 1.06.39.61.56.91.42.58.61.88.41.59.61.87.48.53.69.81.39.6.61.87.2.78.43 1.04.75.29 1 .53.51.5.77.73.37.66.64.89.57.45.84.66.78.14 1.07.33c.3.21.58.4.88.58.31.19.38.78.68.95.32.18.86-.09 1.17.06.33.16.64.31.95.44.35.14.63.37.94.48.36.13.64.42.95.51.39.11.76.15 1.05.21.66.14.51.18 1.03.22" stroke-width="1.23"/><path d="m29.57 78.43c-.21.49-.31.29-.55.93-.1.28-.03.68-.16 1.06-.1.3 0 .71-.11 1.07-.1.32-.26.63-.37.99-.09.33-.28.64-.37.99-.09.33-.49.6-.57.95-.08.33.04.73-.03 1.08s-.14.69-.2 1.04.03.71-.02 1.07-.05.7-.1 1.05-.39.66-.43 1.02-.12.7-.15 1.06.16.72.15 1.07-.3.7-.3 1.06.15.71.16 1.06.21.7.23 1.05-.08.71-.04 1.07.09.7.14 1.05 0 .72.06 1.07.27.67.35 1.01.11.7.21 1.04.39.62.5.96.03.74.16 1.07.51.55.66.87.08.75.24 1.06.39.61.56.91.42.58.61.88.41.59.61.87.48.53.69.81.39.6.61.87.2.78.43 1.04.75.29 1 .53.51.5.77.73.37.66.64.89.57.45.84.66.78.14 1.07.33c.3.21.58.4.88.58.31.19.38.78.68.95.32.18.86-.09 1.17.06.33.16.64.31.95.44.35.14.63.37.94.48.36.13.64.42.95.51.39.11.76.15 1.05.21.66.14.51.18 1.03.22" stroke-width="1.23"/><path d="m60.4 122.58c-.37.04-.71.31-1.07.35s-.76-.15-1.13-.11-.71.31-1.08.35-.73.15-1.09.18-.77-.19-1.13-.16c-.38.03-.73.25-1.08.28-.39.03-.75.14-1.1.17-.39.03-.78-.18-1.12-.15-.42.03-.76.5-1.07.52-.69.05-1.11.01-1.11.01-.32 0-.68-.04-1.04-.08-.32-.04-.62-.36-.97-.43-.32-.07-.68-.04-1.02-.14-.32-.09-.62-.27-.96-.38-.32-.1-.59-.33-.92-.46s-.77.1-1.09-.04-.62-.31-.93-.45-.49-.54-.8-.7-.57-.38-.87-.55-.59-.33-.89-.51-.8-.02-1.09-.21-.53-.46-.81-.66c-.34-.25-.56-.65-.75-1.01s-.5-.78-.5-1.2c0-.13.04-.13.04-.25" stroke-width="1.23"/><path d="m60.4 122.58c-.37.04-.71.31-1.07.35s-.76-.15-1.13-.11-.71.31-1.08.35-.73.15-1.09.18-.77-.19-1.13-.16c-.38.03-.73.25-1.08.28-.39.03-.75.14-1.1.17-.39.03-.78-.18-1.12-.15-.42.03-.76.5-1.07.52-.69.05-1.11.01-1.11.01-.32 0-.68-.04-1.04-.08-.32-.04-.62-.36-.97-.43-.32-.07-.68-.04-1.02-.14-.32-.09-.62-.27-.96-.38-.32-.1-.59-.33-.92-.46s-.77.1-1.09-.04-.62-.31-.93-.45-.49-.54-.8-.7-.57-.38-.87-.55-.59-.33-.89-.51-.8-.02-1.09-.21-.53-.46-.81-.66c-.34-.25-.56-.65-.75-1.01s-.5-.78-.5-1.2c0-.13.04-.13.04-.25" stroke-width="1.23"/><path d="m35.03 111.68c-.52.23-.41.43-.67 1.02-.12.28-.42.69-.35 1.16.05.31.38.65.58 1.06" stroke-width="1.23"/><path d="m35.03 111.68c-.52.23-.41.43-.67 1.02-.12.28-.42.69-.35 1.16.05.31.38.65.58 1.06" stroke-width="1.23"/><path d="m64.56 124.85c.3.31.18.74.14 1.09-.04.33-.24.56-.5.87-.22.26-.27.75-.59.97-.29.21-.62.44-.97.59s-.77.11-1.12.18c-.33.07-.68 0-1.01.06s-.64.31-.96.35c-.34.04-.67.13-1 .16-.34.03-.68.03-1.01.04-.35 0-.7.14-1.02.13-.35-.02-.65-.5-.96-.54-.35-.05-.67-.06-.97-.14-.35-.09-.68-.1-.96-.23-.33-.16-.58-.35-.79-.56-.25-.25-.51-.52-.64-.87s-.2-.71-.24-1.07c-.05-.38.11-.76.12-1.09.02-.62-.24-.56-.15-1.1" stroke-width="1.23"/><path d="m64.56 124.85c.3.31.18.74.14 1.09-.04.33-.24.56-.5.87-.22.26-.27.75-.59.97-.29.21-.62.44-.97.59s-.77.11-1.12.18c-.33.07-.68 0-1.01.06s-.64.31-.96.35c-.34.04-.67.13-1 .16-.34.03-.68.03-1.01.04-.35 0-.7.14-1.02.13-.35-.02-.65-.5-.96-.54-.35-.05-.67-.06-.97-.14-.35-.09-.68-.1-.96-.23-.33-.16-.58-.35-.79-.56-.25-.25-.51-.52-.64-.87s-.2-.71-.24-1.07c-.05-.38.11-.76.12-1.09.02-.62-.24-.56-.15-1.1" stroke-width="1.23"/><path d="m51.67 90.83c.2.46.49.33.69.78s.07.51.27.96-.04.56.15 1.01.16.47.35.92.59.28.79.74 0 .54.19 1 .2.46.4.92.15.48.35.94" stroke-width="1.23"/><path d="m51.67 90.83c.2.46.49.33.69.78s.07.51.27.96-.04.56.15 1.01.16.47.35.92.59.28.79.74 0 .54.19 1 .2.46.4.92.15.48.35.94" stroke-width="1.23"/><path d="m41.02 100.12c.5-.14.4 0 1.03-.15.28-.07.65-.04 1.03-.13.31-.07.61-.32.97-.39.32-.07.73.22 1.08.16.33-.06.66-.16 1.01-.22.33-.06.68-.03 1.03-.08s.61-.55.96-.59.7.05 1.05.01.68-.22 1.02-.25.71.31 1.06.29.68-.21 1.03-.22.69.23 1.03.24c.36 0 .71-.04 1.08.04.35.07.82-.16 1.17-.03s.65.4.99.56.49.59.79.77.83.05 1.12.27.47.58.73.82.52.5.76.76.22.73.44 1.02.49.51.68.81.69.43.85.75.32.66.46.99.23.69.33 1.04-.14.77-.06 1.12.18.68.23 1.03.21.69.23 1.05c.03.55-.25.56-.22 1.11s.32.54.35 1.09" stroke-width="1.23"/><path d="m41.02 100.12c.5-.14.4 0 1.03-.15.28-.07.65-.04 1.03-.13.31-.07.61-.32.97-.39.32-.07.73.22 1.08.16.33-.06.66-.16 1.01-.22.33-.06.68-.03 1.03-.08s.61-.55.96-.59.7.05 1.05.01.68-.22 1.02-.25.71.31 1.06.29.68-.21 1.03-.22.69.23 1.03.24c.36 0 .71-.04 1.08.04.35.07.82-.16 1.17-.03s.65.4.99.56.49.59.79.77.83.05 1.12.27.47.58.73.82.52.5.76.76.22.73.44 1.02.49.51.68.81.69.43.85.75.32.66.46.99.23.69.33 1.04-.14.77-.06 1.12.18.68.23 1.03.21.69.23 1.05c.03.55-.25.56-.22 1.11s.32.54.35 1.09" stroke-width="1.23"/><path d="m58.04 99.98c.41-.29.22-.29.93-.43.26-.05.6-.1 1.01-.13.29-.03.63-.04 1.01-.05.31 0 .65.21 1.02.22.3 0 .6.02.91.11.29.08.52.31.81.45.33.16.8.01 1.06.17.32.19.6.42.84.61.28.23.45.56.65.81.22.27.38.57.53.87s.18.63.3.97" stroke-width="1.23"/><path d="m58.04 99.98c.41-.29.22-.29.93-.43.26-.05.6-.1 1.01-.13.29-.03.63-.04 1.01-.05.31 0 .65.21 1.02.22.3 0 .6.02.91.11.29.08.52.31.81.45.33.16.8.01 1.06.17.32.19.6.42.84.61.28.23.45.56.65.81.22.27.38.57.53.87s.18.63.3.97" stroke-width="1.23"/><path d="m61.51 84.02c.09-.53.24-.42.94-.73.25-.11.62-.11 1.06-.18.3-.05.64-.34 1.05-.35.32 0 .69.02 1.08.04.33.02.66.44 1.04.48s.8-.35 1.1-.29c.4.09.77.23 1.03.35.41.2.35.74.47.98.16.33.22.56.08.87-.2.48-.09.55-.55.78-.39.19-.29.46-.71.58s-.46-.13-.82.11c-.42.29.31.1.88.23.3.07.75-.2 1.09-.06.32.13.51.51.78.72s.5.43.65.75c.13.29.2.59.18.98-.03.5.08.93-.04 1.18-.22.46-.73.43-1.04.51-.37.1-.63.22-.69.76-.05.4-.07.77-.11 1.09-.05.39-.11.85-.45 1.06-.23.14-.65.17-1.13.21-.39.03-.75.12-1.1.21s-.72.34-1.09.4-.77-.15-1.17-.22c-.33-.06-.65-.26-1.03-.46-.29-.16-.77-.14-1.11-.41-.27-.22-.29-.71-.54-.91-.27-.22-.79-.11-1.03-.3-.28-.23-.22-.83-.46-1.02-.3-.24-.69-.28-.9-.45-.49-.39-.42-.25-.8-.56" stroke-width="1.23"/><path d="m61.51 84.02c.09-.53.24-.42.94-.73.25-.11.62-.11 1.06-.18.3-.05.64-.34 1.05-.35.32 0 .69.02 1.08.04.33.02.66.44 1.04.48s.8-.35 1.1-.29c.4.09.77.23 1.03.35.41.2.35.74.47.98.16.33.22.56.08.87-.2.48-.09.55-.55.78-.39.19-.29.46-.71.58s-.46-.13-.82.11c-.42.29.31.1.88.23.3.07.75-.2 1.09-.06.32.13.51.51.78.72s.5.43.65.75c.13.29.2.59.18.98-.03.5.08.93-.04 1.18-.22.46-.73.43-1.04.51-.37.1-.63.22-.69.76-.05.4-.07.77-.11 1.09-.05.39-.11.85-.45 1.06-.23.14-.65.17-1.13.21-.39.03-.75.12-1.1.21s-.72.34-1.09.4-.77-.15-1.17-.22c-.33-.06-.65-.26-1.03-.46-.29-.16-.77-.14-1.11-.41-.27-.22-.29-.71-.54-.91-.27-.22-.79-.11-1.03-.3-.28-.23-.22-.83-.46-1.02-.3-.24-.69-.28-.9-.45-.49-.39-.42-.25-.8-.56" stroke-width="1.23"/><path d="m104.27 76.76c-.15.45-.09.47-.24.92s-.04.49-.19.94-.2.44-.35.89-.25.42-.4.88.25.59.1 1.04" stroke-width="1.23"/><path d="m104.27 76.76c-.15.45-.09.47-.24.92s-.04.49-.19.94-.2.44-.35.89-.25.42-.4.88.25.59.1 1.04" stroke-width="1.23"/><path d="m59.28 113.97c-.54-.12-.48.21-1.15.08-.31-.06-.64-.34-1.05-.42-.34-.06-.77.23-1.15.16-.35-.06-.68-.34-1.06-.4s-.74 0-1.11-.05-.7-.43-1.06-.47-.76.03-1.13 0c-.38-.03-.76.09-1.12.08-.4-.01-.78-.27-1.12-.25-.36.02-.7.32-1.04.32-.37 0-.72.06-1.06.06-.38 0-.72 0-1.05.02-.4.02-.74-.02-1.04.08-.36.12-.43.39-.58.71-.12.26-.38.48-.34.92.03.37.02.86.26 1.12s.74.19 1.1.26c.51.06.53-.08 1.04-.02s.49.31 1 .36.52.06 1.03.11.52.02 1.04.08.5.25 1.02.3.56-.32 1.07-.27" stroke-width="1.23"/><path d="m59.28 113.97c-.54-.12-.48.21-1.15.08-.31-.06-.64-.34-1.05-.42-.34-.06-.77.23-1.15.16-.35-.06-.68-.34-1.06-.4s-.74 0-1.11-.05-.7-.43-1.06-.47-.76.03-1.13 0c-.38-.03-.76.09-1.12.08-.4-.01-.78-.27-1.12-.25-.36.02-.7.32-1.04.32-.37 0-.72.06-1.06.06-.38 0-.72 0-1.05.02-.4.02-.74-.02-1.04.08-.36.12-.43.39-.58.71-.12.26-.38.48-.34.92.03.37.02.86.26 1.12s.74.19 1.1.26c.51.06.53-.08 1.04-.02s.49.31 1 .36.52.06 1.03.11.52.02 1.04.08.5.25 1.02.3.56-.32 1.07-.27" stroke-width="1.23"/><path d="m34.6801 114.79c.45.31.13.56.68.93.26.17.84-.04 1.18.18.28.18.5.52.82.72.3.19.61.37.93.56s.44.67.76.85.75.17 1.06.35c.33.18.59.48.9.64.35.18.76.18 1.06.31.39.17.77.12 1.05.18" stroke-width="1.23"/><path d="m34.6801 114.79c.45.31.13.56.68.93.26.17.84-.04 1.18.18.28.18.5.52.82.72.3.19.61.37.93.56s.44.67.76.85.75.17 1.06.35c.33.18.59.48.9.64.35.18.76.18 1.06.31.39.17.77.12 1.05.18" stroke-width="1.23"/><path d="m97.16 103.86c.27-.5.39-.31 1.26-.24.29.02.6.3 1.06.45.31.1.79-.09 1.2.09" stroke-width="1.23"/><path d="m97.16 103.86c.27-.5.39-.31 1.26-.24.29.02.6.3 1.06.45.31.1.79-.09 1.2.09" stroke-width="1.23"/><path d="m125.55 120.75c.54.03.38.32 1.06.38.31.03.67.05 1.08.1.33.04.72-.1 1.1-.05.34.05.68.25 1.05.31.35.06.74-.06 1.1 0s.65.39 1.01.47.69.2 1.05.29.72.09 1.07.19.63.41.97.52.74.07 1.07.2.75.1 1.08.26.5.63.8.81c.32.19.76.16 1.05.37.3.22.63.42.87.67.26.27.18.77.36 1.07s.42.48.51.83c-.1.52.12.58-.06 1.08s-.31.45-.49.94-.29.46-.47.95.25.95-.24 1.14-.44-.45-.88-.7-.5-.15-.94-.41-.46-.22-.89-.48-.27-.55-.7-.8-.54-.09-.98-.34-.37-.37-.81-.63-.45-.23-.89-.49-.42-.29-.86-.54-.4-.32-.84-.58-.65.11-1.09-.15-.27-.55-.7-.81-.63.07-1.07-.19-.38-.36-.82-.62-.51-.15-.95-.41-.42-.31-.86-.57" stroke-width="1.23"/><path d="m125.55 120.75c.54.03.38.32 1.06.38.31.03.67.05 1.08.1.33.04.72-.1 1.1-.05.34.05.68.25 1.05.31.35.06.74-.06 1.1 0s.65.39 1.01.47.69.2 1.05.29.72.09 1.07.19.63.41.97.52.74.07 1.07.2.75.1 1.08.26.5.63.8.81c.32.19.76.16 1.05.37.3.22.63.42.87.67.26.27.18.77.36 1.07s.42.48.51.83c-.1.52.12.58-.06 1.08s-.31.45-.49.94-.29.46-.47.95.25.95-.24 1.14-.44-.45-.88-.7-.5-.15-.94-.41-.46-.22-.89-.48-.27-.55-.7-.8-.54-.09-.98-.34-.37-.37-.81-.63-.45-.23-.89-.49-.42-.29-.86-.54-.4-.32-.84-.58-.65.11-1.09-.15-.27-.55-.7-.81-.63.07-1.07-.19-.38-.36-.82-.62-.51-.15-.95-.41-.42-.31-.86-.57" stroke-width="1.23"/><path d="m127.51 136.8c.2.34.16.82.39 1.11.24.32.51.6.78.85.29.27.69.35 1.01.53s.61.47.98.56c.51-.12.42-.37.91-.56s.59.04 1.07-.16.51-.16 1-.36.78 0 .95-.5-.1-.56-.37-.99-.42-.33-.69-.76-.43-.32-.71-.75.02-.61-.26-1.04-.5-.29-.77-.71-.33-.39-.6-.82.04-.63-.23-1.06-.37-.37-.65-.8-.54-.26-.82-.69-.16-.5-.44-.93-.18-.49-.45-.92-.44-.32-.72-.75-.1-.54-.38-.97-.38-.37-.66-.8-.31-.41-.59-.84" stroke-width="1.23"/><path d="m127.51 136.8c.2.34.16.82.39 1.11.24.32.51.6.78.85.29.27.69.35 1.01.53s.61.47.98.56c.51-.12.42-.37.91-.56s.59.04 1.07-.16.51-.16 1-.36.78 0 .95-.5-.1-.56-.37-.99-.42-.33-.69-.76-.43-.32-.71-.75.02-.61-.26-1.04-.5-.29-.77-.71-.33-.39-.6-.82.04-.63-.23-1.06-.37-.37-.65-.8-.54-.26-.82-.69-.16-.5-.44-.93-.18-.49-.45-.92-.44-.32-.72-.75-.1-.54-.38-.97-.38-.37-.66-.8-.31-.41-.59-.84" stroke-width="1.23"/><path d="m60.12 32.32c.49.52.55.55.64 1.16" stroke-width="1.23"/><path d="m60.12 32.32c.49.52.55.55.64 1.16" stroke-width="1.23"/><path d="m46.3 63.57c-.23-.36-.17-.26-.29-.75" stroke-width="1.23"/><path d="m46.3 63.57c-.23-.36-.17-.26-.29-.75" stroke-width="1.23"/><path d="m12.3599 27.31c.23.2.33.09.56.29.21.19.38.57.65.62s.65 0 .92-.1l-.07-.19c.39-.14.81-.28 1.16-.2.37.09.79.33 1.05.6s.23.75.3 1.12c.07.35-.01.65-.17 1.03-.07.17.02.21-.05.39-.12.28.11.59.12.89s-.3.66-.16.93c.05.11 0 .14.05.25.18.37.19.63.16 1-.04.38.12.82-.1 1.12s-.5.7-.86.85c-.33.15-.78-.07-1.19-.11-.08 0-.1.16-.17.15-.34-.04-.75-.31-1.06-.19s-.4.63-.63.88c-.05.06-.09.02-.14.08-.28.3-.73.28-1.08.38-.37.11-.78.49-1.15.39s-.76996-.39-1.04996-.66c-.26-.26-.32-.71-.42-1.11-.03-.12-.07-.11-.1-.23-.07-.29-.36-.43-.54-.66s-.36-.34-.62-.48c-.17-.09-.05-.32-.21-.4-.37-.19-.78-.37-.96-.69-.19-.34-.22-.8-.19-1.18s.43-.6.66-.91c.21-.29.39-.51.77-.65.27-.1.63-.26.81-.48s-.14-.67-.09-.95c.05-.3.22-.28.27-.58.06-.4.13-.87.36-1.15.25-.3.74-.37 1.08996-.49.35-.12.77-.37 1.15-.3.36.07.63.46.93.73z" stroke-width="1.23"/><path d="m12.3599 27.31c.23.2.33.09.56.29.21.19.38.57.65.62s.65 0 .92-.1l-.07-.19c.39-.14.81-.28 1.16-.2.37.09.79.33 1.05.6s.23.75.3 1.12c.07.35-.01.65-.17 1.03-.07.17.02.21-.05.39-.12.28.11.59.12.89s-.3.66-.16.93c.05.11 0 .14.05.25.18.37.19.63.16 1-.04.38.12.82-.1 1.12s-.5.7-.86.85c-.33.15-.78-.07-1.19-.11-.08 0-.1.16-.17.15-.34-.04-.75-.31-1.06-.19s-.4.63-.63.88c-.05.06-.09.02-.14.08-.28.3-.73.28-1.08.38-.37.11-.78.49-1.15.39s-.76996-.39-1.04996-.66c-.26-.26-.32-.71-.42-1.11-.03-.12-.07-.11-.1-.23-.07-.29-.36-.43-.54-.66s-.36-.34-.62-.48c-.17-.09-.05-.32-.21-.4-.37-.19-.78-.37-.96-.69-.19-.34-.22-.8-.19-1.18s.43-.6.66-.91c.21-.29.39-.51.77-.65.27-.1.63-.26.81-.48s-.14-.67-.09-.95c.05-.3.22-.28.27-.58.06-.4.13-.87.36-1.15.25-.3.74-.37 1.08996-.49.35-.12.77-.37 1.15-.3.36.07.63.46.93.73z" stroke-width="1.23"/><path d="m3.41002 48.71c.22.08.14.3.36.38.4.15.87-.08 1.19-.36l.04.05c.32-.28.68-.13 1.04-.11.39.03.67.04.93.32.25.27.57.55.55.97 0 .14.15.15.14.29-.02.46-.07.9.27 1.21.07.07.1.04.17.1.3.29.25.7.28 1.06.03.39.13.78-.1 1.09-.21.3-.57.45-.98.55-.06.01 0 .24-.06.25-.5.12-.89.35-1.08.83-.02.05-.23-.03-.25.02-.16.39-.22.88-.55 1.05-.35.17-.79-.12-1.16-.21s-.66-.17-.9-.52c-.05-.08-.1-.04-.16-.12-.26-.38-.7-.54-1.16-.59-.14-.02-.13-.15-.27-.17-.42-.05-.56-.36-.789998-.64-.24-.3-.34-.51-.3-.89.03-.36 0-.7.33-.97l-.14-.17c.329998-.28.689998-.61.599998-1.04-.05-.23-.34-.17-.39-.4-.079998-.41.02-.92.2-1.24.19-.34.7-.4 1.06-.53s.74-.37 1.13-.22z" stroke-width="1.23"/><path d="m3.41002 48.71c.22.08.14.3.36.38.4.15.87-.08 1.19-.36l.04.05c.32-.28.68-.13 1.04-.11.39.03.67.04.93.32.25.27.57.55.55.97 0 .14.15.15.14.29-.02.46-.07.9.27 1.21.07.07.1.04.17.1.3.29.25.7.28 1.06.03.39.13.78-.1 1.09-.21.3-.57.45-.98.55-.06.01 0 .24-.06.25-.5.12-.89.35-1.08.83-.02.05-.23-.03-.25.02-.16.39-.22.88-.55 1.05-.35.17-.79-.12-1.16-.21s-.66-.17-.9-.52c-.05-.08-.1-.04-.16-.12-.26-.38-.7-.54-1.16-.59-.14-.02-.13-.15-.27-.17-.42-.05-.56-.36-.789998-.64-.24-.3-.34-.51-.3-.89.03-.36 0-.7.33-.97l-.14-.17c.329998-.28.689998-.61.599998-1.04-.05-.23-.34-.17-.39-.4-.079998-.41.02-.92.2-1.24.19-.34.7-.4 1.06-.53s.74-.37 1.13-.22z" stroke-width="1.23"/></g></g></svg>